<?xml version="1.0" encoding="utf-8"?>
<!-- Generator: Adobe Illustrator 27.8.1, SVG Export Plug-In . SVG Version: 6.00 Build 0)  -->
<svg version="1.1" xmlns="http://www.w3.org/2000/svg" xmlns:xlink="http://www.w3.org/1999/xlink" x="0px" y="0px"
	 viewBox="0 0 1100 265.15" style="enable-background:new 0 0 1100 265.15;" xml:space="preserve">
<style type="text/css">
	.st0{fill:none;}
	.st1{fill:#E6E6E6;}
	.st2{fill:#F7931E;}
</style>
<g id="Layer_1">
	<g>
		<path class="st0" d="M1100,282.95c-366.67,0-733.33,0-1100,0c0-100,0-200,0-300c366.67,0,733.33,0,1100,0
			C1100,82.95,1100,182.95,1100,282.95z M137.18,84.95c2.47,0,4.46-0.13,6.43,0.04c1.94,0.16,3.85,0.73,5.79,0.94
			c4.74,0.52,7.57,3.26,7.57,8.02c0.05,42.32,0.04,84.65,0.01,126.97c0,4.65-2.53,7.34-7.07,7.99c-4.18,0.61-8.4,1.02-12.55,1.52
			c0,2.17,0,4.21,0,6.27c40.62,0,80.88,0,121.37,0c0.87-13.32,1.72-26.4,2.55-39.14c-6.71-2.33-7.39,1.84-8.27,5.82
			c-1.89,8.52-4.75,16.93-13.11,20.79c-5.91,2.72-12.77,4.19-19.3,4.55c-9.55,0.53-19.18-0.39-28.77-0.8
			c-8.24-0.35-11.81-4.07-11.82-12.25c-0.03-16.66-0.01-33.33-0.01-49.99c0-2.11,0-4.22,0-6.74c13.67,0,26.83-0.52,39.91,0.18
			c8.5,0.45,12.46,4.08,14.13,13.5c0.55,3.13,1.54,6.19,2.26,9.03c18.15,0,35.75,0,53.36,0c0-2.35,0-4.41,0-6.53
			c-4.58-0.42-8.84-0.7-13.07-1.24c-4.26-0.54-5.41-2.63-3.41-6.36c3.16-5.9,6.41-11.76,9.84-17.51
			c7.6-12.73,15.33-25.37,23.39-38.69c3.43,5.42,6.44,10.22,9.48,15c8.32,13.08,16.7,26.11,24.95,39.23
			c3.56,5.66,2.27,7.96-4.16,8.43c-3.87,0.28-7.72,0.95-11.4,1.42c0,2.26,0,4.2,0,6.22c22,0,43.73,0,65.35,0c0-2.38,0-4.44,0-6.68
			c-2.04,0-3.7,0.1-5.35-0.02c-8.01-0.59-14.65-3.21-19.26-10.55c-13.96-22.23-28.14-44.33-42.59-66.25
			c-2.65-4.03-3.57-6.6-0.32-10.82c11.85-15.42,23.12-31.28,34.93-46.73c3.89-5.09,8.79-9.43,15.6-10.4c2.72-0.39,5.5-0.35,8.1-0.5
			c0-2.44,0-4.38,0-6.41c-17,0-33.73,0-50.35,0c0,2.38,0,4.43,0,6.16c3.82,0.52,7.25,0.81,10.61,1.5c4.44,0.92,5.24,2.59,2.88,6.31
			c-9.92,15.61-19.95,31.15-30.19,47.1c-6.54-10.25-12.58-19.73-18.64-29.19c-3.61-5.63-7.36-11.17-10.87-16.86
			c-2.68-4.35-1.44-6.8,3.3-7.35c3.39-0.39,6.76-0.97,10.21-1.47c0-2.09,0-4.14,0-6.14c-19.72,0-39.12,0-58.43,0
			c0,2.31,0,4.26,0,6.17c16.83,1.69,14.74,2.48,21,9.41c2.8,3.1,4.62,7.08,6.87,10.68c10.61,17.02,21.25,34.03,31.73,51.14
			c0.6,0.97,0.34,3.1-0.35,4.14c-11.85,17.98-23.59,36.04-35.91,53.7c-5.19,7.44-9.89,16.42-21.85,15.48c0-14.46,0-29.2,0-43.85
			c-2.46,0-4.42,0-6.52,0c-0.46,2.77-0.61,5.41-1.36,7.88c-1.68,5.56-4.23,10.49-11.01,10.95c-5.58,0.38-11.17,0.79-16.76,0.89
			c-8.59,0.15-17.19,0.04-26.08,0.04c0-19.97-0.03-39.27,0.03-58.58c0.01-3.87,2.31-5.47,6.07-5.44c8,0.06,16.01-0.24,23.99,0.1
			c6.7,0.28,13.41,0.98,20.04,2.02c4.76,0.74,8.66,3.57,10.42,8.14c2.43,6.32,4.28,12.86,6.41,19.41c1.66,0,3.72,0,5.79,0
			c0-12.62,0-24.88,0-37.37c-38.63,0-77.01,0-115.58,0C137.18,80.45,137.18,82.39,137.18,84.95z M634.92,174.94
			c-2.38,0-4.41,0.34-6.29-0.06c-7.44-1.58-10.79-0.84-10.71-11.11c0.24-29.48,0.08-58.97,0.08-88.46c0-19.32-0.04-38.65,0.03-57.97
			c0.02-4.04-0.31-6.07-5.61-4.81c-8.87,2.11-18.01,3.13-27.08,4.37c-5.64,0.77-5.9,0.91-4.64,7.05c1.91,0,3.95-0.32,5.86,0.06
			c6.56,1.28,10.01,1.33,9.5,10.02c-0.35,5.98-0.07,11.99-0.07,17.99c0,6.56,0,13.12,0,20.09c-12.88-5.2-25.47-6.55-38.29-4.08
			c-14.18,2.73-26.67,8.32-34.84,21.28c-11.77,18.67-13.1,38.47-8.03,59.44c5.77,23.86,23.55,36.39,46.05,36.08
			c11.58-0.16,21.76-5.13,30.9-12.14c1.16-0.89,2.45-1.61,4.21-2.75c0,3.16,0.16,5.33-0.04,7.48c-0.32,3.53,1.17,4.74,4.63,4.59
			c4.99-0.21,9.99-0.05,14.99-0.05c6.42,0,12.85,0,19.33,0C634.92,179.37,634.92,177.55,634.92,174.94z M34.2,60.76
			c1.7-6.49,3.05-12.53,4.88-18.41c1.52-4.87,5.43-8.47,10.08-9.15c11-1.61,22.16-2.14,33.41-3.12c0.26,1.95,0.41,2.58,0.41,3.2
			c0.02,44.14,0.03,88.29,0,132.43c0,4.97-3.07,7.78-8.5,8.23c-5.38,0.45-10.76,0.95-16.13,1.43c0,2.19,0,4.24,0,6.19
			c24.4,0,48.44,0,72.39,0c0-2.32,0-4.26,0-6.62c-2.72,0-5.19,0.13-7.64-0.04c-2.61-0.18-5.18-0.77-7.79-0.94
			c-6.8-0.42-9.31-3.03-9.31-9.97c0-42.64,0-85.29,0.01-127.93c0-1.6,0.14-3.21,0.28-6.04c11.22,1,22.1,1.42,32.74,3.21
			c3.57,0.6,7.9,4.05,9.5,7.36c3.05,6.29,4.39,13.41,6.4,20.04c1.88,0,3.81,0,5.71,0c0-12.69,0-25.07,0-37.3
			c-44.4,0-88.43,0-132.6,0c0,12.22,0,24.05,0.02,35.87c0,0.46,0.26,0.92,0.45,1.54C30.48,60.76,32.42,60.76,34.2,60.76z
			 M759.27,123.05c-0.8-5.04-1.32-13.16-3.47-20.81c-3.82-13.6-11.67-24.4-25.22-30.03c-11.9-4.94-24.16-5.95-37.05-4.44
			c-19.23,2.25-34.66,13.63-40.51,32.02c-5.51,17.33-5.55,34.82-0.02,52.16c4.24,13.29,12.56,23.07,25.77,28.34
			c12.89,5.15,26.23,5.93,39.64,3.35c14.07-2.71,25.73-9.67,32.84-22.56C757.21,150.24,758.66,138.21,759.27,123.05z M417.9,121.95
			c2.68,0,4.5,0,6.32,0c19.49,0,38.99,0.02,58.48-0.01c7.79-0.01,10.35-2.53,10.25-10.37c-0.04-3.1-0.4-6.24-0.99-9.28
			c-2.98-15.28-10.5-27.09-25.95-32.24c-9.45-3.15-19.08-3.81-29.09-2.23c-21.54,3.39-33.89,16.16-39.84,36.16
			c-4.25,14.28-4.2,28.94-0.93,43.37c2.76,12.18,7.95,22.95,19.41,29.94c11.56,7.05,24.15,8.72,36.95,7.39
			c12.41-1.28,23.83-6.02,31.2-17.05c3.15-4.71,5.63-9.87,8.43-14.83c-2.81-1.48-5.14-2.71-7.63-4.02
			c-7.29,16.17-18.43,25.95-36.89,24.12c-8.05-0.8-14.96-3.81-20.01-10.68C418.81,150.25,418.31,136.48,417.9,121.95z
			 M889.84,121.95c2.55,0,4.35,0,6.15,0c19.66,0,39.32,0.02,58.98-0.01c7.5-0.01,10.06-2.56,9.98-10.13
			c-0.03-3.1-0.42-6.23-0.99-9.28c-2.84-15.34-10.37-27.19-25.74-32.41c-9.4-3.19-19.04-3.84-29.08-2.32
			c-21.84,3.3-34.35,16.7-40.13,36.44c-4.2,14.36-4.05,28.98-0.85,43.39c3.78,17.01,12.96,29.78,30.7,34.76
			c10.31,2.9,20.77,3.73,31.19,1.39c10.06-2.26,19.19-6.65,25.15-15.62c3.29-4.96,6.06-10.26,9.02-15.33
			c-2.94-1.56-5.2-2.77-7.46-3.97c-0.65,1.05-1.25,1.84-1.67,2.71c-7.21,15.01-18.64,23.06-35.74,21.32
			c-8.05-0.82-14.9-4.01-19.9-10.88C890.81,150.14,890.4,136.47,889.84,121.95z M1057,101.83c0-7.15-0.47-13.83,0.14-20.42
			c0.56-6-2.18-8.67-7.27-10.47c-14.93-5.27-29.88-5.6-44.65,0.09c-16.79,6.48-23.42,25.84-16.58,41.02
			c4.06,9.03,11.75,14.2,20.54,17.81c7.82,3.2,16.06,5.5,23.62,9.19c9.82,4.8,14.63,14.86,11.85,23.59
			c-2.38,7.45-8.79,14.68-21.58,14.31c-11.93-0.35-20.56-6.09-26.05-16.4c-2.79-5.24-4.72-10.93-7-16.32c-1.82,0-3.75,0-5.98,0
			c0,1.93-0.12,3.58,0.02,5.2c0.6,6.7,1.62,13.39,1.82,20.1c0.11,3.87,1.59,6.07,4.83,7.74c7.03,3.63,14.31,5.86,22.27,6.91
			c14.43,1.92,27.92,0.17,39.61-8.64c12.3-9.26,14.14-26.57,7.99-39.6c-4.94-10.48-14.5-14.95-24.39-19.04
			c-8.09-3.35-16.64-5.88-24.18-10.19c-10.33-5.9-10.8-21.36-1.59-27.55c12.81-8.61,29.43-4.16,36.1,9.92
			c1.91,4.03,2.88,8.5,4.27,12.72C1052.72,101.83,1054.54,101.83,1057,101.83z M837.76,174.95c-3.13,0-5.94,0.09-8.73-0.02
			c-10.56-0.42-13.03-2.97-13.03-13.33c0-18.49-0.11-36.99,0.09-55.48c0.04-3.85,0.53-7.99,2.04-11.47
			c3.9-8.95,8.95-12.2,18.13-7.99c2.08,0.96,4.06,2.14,6.18,3c6.57,2.66,11.59,0.66,14.55-5.66c2.96-6.33,0.97-12.31-4.95-15.58
			c-4.88-2.69-9.77-1.98-14.04,0.64c-7.49,4.6-14.57,9.86-22.09,15.03c-0.97-5.37-2.02-11.17-3.08-17.07
			c-10.07,1.69-19.65,3.67-29.33,4.77c-4.91,0.56-6.38,2.25-5.01,7.16c1.85,0,3.66-0.15,5.45,0.03c7.6,0.73,10.03,2.58,10.04,8.06
			c0.07,26.66,0.02,53.31,0.04,79.97c0,3.86-1.84,6.23-5.61,6.89c-3.67,0.64-7.38,1.06-11.03,1.56c0,2.14,0,4.18,0,6.25
			c20.3,0,40.23,0,60.4,0C837.76,179.55,837.76,177.6,837.76,174.95z"/>
		<path class="st0" d="M1100,282.95c-366.67,0-733.33,0-1100,0c0-100,0-200,0-300c366.67,0,733.33,0,1100,0
			C1100,82.95,1100,182.95,1100,282.95z M137.18,84.95c2.47,0,4.46-0.13,6.43,0.04c1.94,0.16,3.85,0.73,5.79,0.94
			c4.74,0.52,7.57,3.26,7.57,8.02c0.05,42.32,0.04,84.65,0.01,126.97c0,4.65-2.53,7.34-7.07,7.99c-4.18,0.61-8.4,1.02-12.55,1.52
			c0,2.17,0,4.21,0,6.27c40.62,0,80.88,0,121.37,0c0.87-13.32,1.72-26.4,2.55-39.14c-6.71-2.33-7.39,1.84-8.27,5.82
			c-1.89,8.52-4.75,16.93-13.11,20.79c-5.91,2.72-12.77,4.19-19.3,4.55c-9.55,0.53-19.18-0.39-28.77-0.8
			c-8.24-0.35-11.81-4.07-11.82-12.25c-0.03-16.66-0.01-33.33-0.01-49.99c0-2.11,0-4.22,0-6.74c13.67,0,26.83-0.52,39.91,0.18
			c8.5,0.45,12.46,4.08,14.13,13.5c0.55,3.13,1.54,6.19,2.26,9.03c18.15,0,35.75,0,53.36,0c0-2.35,0-4.41,0-6.53
			c-4.58-0.42-8.84-0.7-13.07-1.24c-4.26-0.54-5.41-2.63-3.41-6.36c3.16-5.9,6.41-11.76,9.84-17.51
			c7.6-12.73,15.33-25.37,23.39-38.69c3.43,5.42,6.44,10.22,9.48,15c8.32,13.08,16.7,26.11,24.95,39.23
			c3.56,5.66,2.27,7.96-4.16,8.43c-3.87,0.28-7.72,0.95-11.4,1.42c0,2.26,0,4.2,0,6.22c22,0,43.73,0,65.35,0c0-2.38,0-4.44,0-6.68
			c-2.04,0-3.7,0.1-5.35-0.02c-8.01-0.59-14.65-3.21-19.26-10.55c-13.96-22.23-28.14-44.33-42.59-66.25
			c-2.65-4.03-3.57-6.6-0.32-10.82c11.85-15.42,23.12-31.28,34.93-46.73c3.89-5.09,8.79-9.43,15.6-10.4c2.72-0.39,5.5-0.35,8.1-0.5
			c0-2.44,0-4.38,0-6.41c-17,0-33.73,0-50.35,0c0,2.38,0,4.43,0,6.16c3.82,0.52,7.25,0.81,10.61,1.5c4.44,0.92,5.24,2.59,2.88,6.31
			c-9.92,15.61-19.95,31.15-30.19,47.1c-6.54-10.25-12.58-19.73-18.64-29.19c-3.61-5.63-7.36-11.17-10.87-16.86
			c-2.68-4.35-1.44-6.8,3.3-7.35c3.39-0.39,6.76-0.97,10.21-1.47c0-2.09,0-4.14,0-6.14c-19.72,0-39.12,0-58.43,0
			c0,2.31,0,4.26,0,6.17c16.83,1.69,14.74,2.48,21,9.41c2.8,3.1,4.62,7.08,6.87,10.68c10.61,17.02,21.25,34.03,31.73,51.14
			c0.6,0.97,0.34,3.1-0.35,4.14c-11.85,17.98-23.59,36.04-35.91,53.7c-5.19,7.44-9.89,16.42-21.85,15.48c0-14.46,0-29.2,0-43.85
			c-2.46,0-4.42,0-6.52,0c-0.46,2.77-0.61,5.41-1.36,7.88c-1.68,5.56-4.23,10.49-11.01,10.95c-5.58,0.38-11.17,0.79-16.76,0.89
			c-8.59,0.15-17.19,0.04-26.08,0.04c0-19.97-0.03-39.27,0.03-58.58c0.01-3.87,2.31-5.47,6.07-5.44c8,0.06,16.01-0.24,23.99,0.1
			c6.7,0.28,13.41,0.98,20.04,2.02c4.76,0.74,8.66,3.57,10.42,8.14c2.43,6.32,4.28,12.86,6.41,19.41c1.66,0,3.72,0,5.79,0
			c0-12.62,0-24.88,0-37.37c-38.63,0-77.01,0-115.58,0C137.18,80.45,137.18,82.39,137.18,84.95z M634.92,174.94
			c-2.38,0-4.41,0.34-6.29-0.06c-7.44-1.58-10.79-0.84-10.71-11.11c0.24-29.48,0.08-58.97,0.08-88.46c0-19.32-0.04-38.65,0.03-57.97
			c0.02-4.04-0.31-6.07-5.61-4.81c-8.87,2.11-18.01,3.13-27.08,4.37c-5.64,0.77-5.9,0.91-4.64,7.05c1.91,0,3.95-0.32,5.86,0.06
			c6.56,1.28,10.01,1.33,9.5,10.02c-0.35,5.98-0.07,11.99-0.07,17.99c0,6.56,0,13.12,0,20.09c-12.88-5.2-25.47-6.55-38.29-4.08
			c-14.18,2.73-26.67,8.32-34.84,21.28c-11.77,18.67-13.1,38.47-8.03,59.44c5.77,23.86,23.55,36.39,46.05,36.08
			c11.58-0.16,21.76-5.13,30.9-12.14c1.16-0.89,2.45-1.61,4.21-2.75c0,3.16,0.16,5.33-0.04,7.48c-0.32,3.53,1.17,4.74,4.63,4.59
			c4.99-0.21,9.99-0.05,14.99-0.05c6.42,0,12.85,0,19.33,0C634.92,179.37,634.92,177.55,634.92,174.94z M34.2,60.76
			c1.7-6.49,3.05-12.53,4.88-18.41c1.52-4.87,5.43-8.47,10.08-9.15c11-1.61,22.16-2.14,33.41-3.12c0.26,1.95,0.41,2.58,0.41,3.2
			c0.02,44.14,0.03,88.29,0,132.43c0,4.97-3.07,7.78-8.5,8.23c-5.38,0.45-10.76,0.95-16.13,1.43c0,2.19,0,4.24,0,6.19
			c24.4,0,48.44,0,72.39,0c0-2.32,0-4.26,0-6.62c-2.72,0-5.19,0.13-7.64-0.04c-2.61-0.18-5.18-0.77-7.79-0.94
			c-6.8-0.42-9.31-3.03-9.31-9.97c0-42.64,0-85.29,0.01-127.93c0-1.6,0.14-3.21,0.28-6.04c11.22,1,22.1,1.42,32.74,3.21
			c3.57,0.6,7.9,4.05,9.5,7.36c3.05,6.29,4.39,13.41,6.4,20.04c1.88,0,3.81,0,5.71,0c0-12.69,0-25.07,0-37.3
			c-44.4,0-88.43,0-132.6,0c0,12.22,0,24.05,0.02,35.87c0,0.46,0.26,0.92,0.45,1.54C30.48,60.76,32.42,60.76,34.2,60.76z
			 M759.27,123.05c-0.8-5.04-1.32-13.16-3.47-20.81c-3.82-13.6-11.67-24.4-25.22-30.03c-11.9-4.94-24.16-5.95-37.05-4.44
			c-19.23,2.25-34.66,13.63-40.51,32.02c-5.51,17.33-5.55,34.82-0.02,52.16c4.24,13.29,12.56,23.07,25.77,28.34
			c12.89,5.15,26.23,5.93,39.64,3.35c14.07-2.71,25.73-9.67,32.84-22.56C757.21,150.24,758.66,138.21,759.27,123.05z M417.9,121.95
			c2.68,0,4.5,0,6.32,0c19.49,0,38.99,0.02,58.48-0.01c7.79-0.01,10.35-2.53,10.25-10.37c-0.04-3.1-0.4-6.24-0.99-9.28
			c-2.98-15.28-10.5-27.09-25.95-32.24c-9.45-3.15-19.08-3.81-29.09-2.23c-21.54,3.39-33.89,16.16-39.84,36.16
			c-4.25,14.28-4.2,28.94-0.93,43.37c2.76,12.18,7.95,22.95,19.41,29.94c11.56,7.05,24.15,8.72,36.95,7.39
			c12.41-1.28,23.83-6.02,31.2-17.05c3.15-4.71,5.63-9.87,8.43-14.83c-2.81-1.48-5.14-2.71-7.63-4.02
			c-7.29,16.17-18.43,25.95-36.89,24.12c-8.05-0.8-14.96-3.81-20.01-10.68C418.81,150.25,418.31,136.48,417.9,121.95z
			 M889.84,121.95c2.55,0,4.35,0,6.15,0c19.66,0,39.32,0.02,58.98-0.01c7.5-0.01,10.06-2.56,9.98-10.13
			c-0.03-3.1-0.42-6.23-0.99-9.28c-2.84-15.34-10.37-27.19-25.74-32.41c-9.4-3.19-19.04-3.84-29.08-2.32
			c-21.84,3.3-34.35,16.7-40.13,36.44c-4.2,14.36-4.05,28.98-0.85,43.39c3.78,17.01,12.96,29.78,30.7,34.76
			c10.31,2.9,20.77,3.73,31.19,1.39c10.06-2.26,19.19-6.65,25.15-15.62c3.29-4.96,6.06-10.26,9.02-15.33
			c-2.94-1.56-5.2-2.77-7.46-3.97c-0.65,1.05-1.25,1.84-1.67,2.71c-7.21,15.01-18.64,23.06-35.74,21.32
			c-8.05-0.82-14.9-4.01-19.9-10.88C890.81,150.14,890.4,136.47,889.84,121.95z M1057,101.83c0-7.15-0.47-13.83,0.14-20.42
			c0.56-6-2.18-8.67-7.27-10.47c-14.93-5.27-29.88-5.6-44.65,0.09c-16.79,6.48-23.42,25.84-16.58,41.02
			c4.06,9.03,11.75,14.2,20.54,17.81c7.82,3.2,16.06,5.5,23.62,9.19c9.82,4.8,14.63,14.86,11.85,23.59
			c-2.38,7.45-8.79,14.68-21.58,14.31c-11.93-0.35-20.56-6.09-26.05-16.4c-2.79-5.24-4.72-10.93-7-16.32c-1.82,0-3.75,0-5.98,0
			c0,1.93-0.12,3.58,0.02,5.2c0.6,6.7,1.62,13.39,1.82,20.1c0.11,3.87,1.59,6.07,4.83,7.74c7.03,3.63,14.31,5.86,22.27,6.91
			c14.43,1.92,27.92,0.17,39.61-8.64c12.3-9.26,14.14-26.57,7.99-39.6c-4.94-10.48-14.5-14.95-24.39-19.04
			c-8.09-3.35-16.64-5.88-24.18-10.19c-10.33-5.9-10.8-21.36-1.59-27.55c12.81-8.61,29.43-4.16,36.1,9.92
			c1.91,4.03,2.88,8.5,4.27,12.72C1052.72,101.83,1054.54,101.83,1057,101.83z M837.76,174.95c-3.13,0-5.94,0.09-8.73-0.02
			c-10.56-0.42-13.03-2.97-13.03-13.33c0-18.49-0.11-36.99,0.09-55.48c0.04-3.85,0.53-7.99,2.04-11.47
			c3.9-8.95,8.95-12.2,18.13-7.99c2.08,0.96,4.06,2.14,6.18,3c6.57,2.66,11.59,0.66,14.55-5.66c2.96-6.33,0.97-12.31-4.95-15.58
			c-4.88-2.69-9.77-1.98-14.04,0.64c-7.49,4.6-14.57,9.86-22.09,15.03c-0.97-5.37-2.02-11.17-3.08-17.07
			c-10.07,1.69-19.65,3.67-29.33,4.77c-4.91,0.56-6.38,2.25-5.01,7.16c1.85,0,3.66-0.15,5.45,0.03c7.6,0.73,10.03,2.58,10.04,8.06
			c0.07,26.66,0.02,53.31,0.04,79.97c0,3.86-1.84,6.23-5.61,6.89c-3.67,0.64-7.38,1.06-11.03,1.56c0,2.14,0,4.18,0,6.25
			c20.3,0,40.23,0,60.4,0C837.76,179.55,837.76,177.6,837.76,174.95z"/>
		<path class="st1" d="M137.18,84.95c0-2.57,0-4.51,0-6.73c38.57,0,76.96,0,115.58,0c0,12.48,0,24.75,0,37.37c-2.08,0-4.13,0-5.79,0
			c-2.13-6.55-3.98-13.1-6.41-19.41c-1.76-4.57-5.67-7.4-10.42-8.14c-6.63-1.03-13.34-1.73-20.04-2.02
			c-7.98-0.34-15.99-0.04-23.99-0.1c-3.76-0.03-6.06,1.57-6.07,5.44c-0.06,19.3-0.03,38.61-0.03,58.58c8.89,0,17.49,0.11,26.08-0.04
			c5.59-0.1,11.18-0.51,16.76-0.89c6.78-0.46,9.33-5.39,11.01-10.95c0.75-2.47,0.9-5.11,1.36-7.88c2.1,0,4.06,0,6.52,0
			c0,14.65,0,29.39,0,43.85c11.96,0.94,16.65-8.04,21.85-15.48c12.32-17.66,24.05-35.72,35.91-53.7c0.69-1.04,0.95-3.17,0.35-4.14
			c-10.48-17.11-21.12-34.12-31.73-51.14c-2.24-3.6-4.07-7.58-6.87-10.68c-6.26-6.94-4.17-7.72-21-9.41c0-1.91,0-3.86,0-6.17
			c19.31,0,38.71,0,58.43,0c0,2.01,0,4.06,0,6.14c-3.46,0.5-6.82,1.08-10.21,1.47c-4.74,0.55-5.98,3-3.3,7.35
			c3.5,5.69,7.26,11.23,10.87,16.86c6.06,9.46,12.1,18.94,18.64,29.19c10.24-15.95,20.27-31.49,30.19-47.1
			c2.36-3.71,1.57-5.39-2.88-6.31c-3.35-0.69-6.79-0.98-10.61-1.5c0-1.72,0-3.78,0-6.16c16.62,0,33.35,0,50.35,0
			c0,2.03,0,3.97,0,6.41c-2.6,0.15-5.38,0.11-8.1,0.5c-6.81,0.98-11.72,5.32-15.6,10.4c-11.81,15.45-23.08,31.31-34.93,46.73
			c-3.24,4.22-2.33,6.8,0.32,10.82c14.45,21.92,28.62,44.02,42.59,66.25c4.61,7.34,11.25,9.96,19.26,10.55
			c1.65,0.12,3.31,0.02,5.35,0.02c0,2.24,0,4.3,0,6.68c-21.62,0-43.35,0-65.35,0c0-2.03,0-3.96,0-6.22
			c3.69-0.47,7.53-1.14,11.4-1.42c6.43-0.47,7.72-2.77,4.16-8.43c-8.25-13.12-16.63-26.15-24.95-39.23c-3.04-4.78-6.05-9.57-9.48-15
			c-8.06,13.32-15.8,25.96-23.39,38.69c-3.43,5.75-6.68,11.61-9.84,17.51c-2,3.74-0.85,5.82,3.41,6.36
			c4.23,0.54,8.5,0.82,13.07,1.24c0,2.12,0,4.18,0,6.53c-17.61,0-35.21,0-53.36,0c-0.72-2.84-1.71-5.89-2.26-9.03
			c-1.66-9.41-5.63-13.04-14.13-13.5c-13.09-0.7-26.24-0.18-39.91-0.18c0,2.52,0,4.63,0,6.74c0,16.66-0.02,33.33,0.01,49.99
			c0.01,8.17,3.58,11.9,11.82,12.25c9.59,0.41,19.23,1.32,28.77,0.8c6.53-0.36,13.39-1.83,19.3-4.55
			c8.36-3.85,11.22-12.27,13.11-20.79c0.88-3.98,1.56-8.15,8.27-5.82c-0.83,12.74-1.68,25.83-2.55,39.14c-40.49,0-80.75,0-121.37,0
			c0-2.06,0-4.11,0-6.27c4.15-0.49,8.36-0.91,12.55-1.52c4.54-0.66,7.07-3.35,7.07-7.99c0.03-42.32,0.04-84.65-0.01-126.97
			c-0.01-4.76-2.83-7.5-7.57-8.02c-1.94-0.21-3.85-0.78-5.79-0.94C141.64,84.82,139.65,84.95,137.18,84.95z"/>
		<path class="st1" d="M634.92,174.94c0,2.6,0,4.43,0,7c-6.48,0-12.91,0-19.33,0c-5,0-10-0.16-14.99,0.05
			c-3.46,0.15-4.95-1.06-4.63-4.59c0.19-2.15,0.04-4.32,0.04-7.48c-1.76,1.14-3.05,1.86-4.21,2.75
			c-9.14,7.01-19.32,11.98-30.9,12.14c-22.49,0.31-40.27-12.22-46.05-36.08c-5.07-20.97-3.75-40.77,8.03-59.44
			c8.17-12.96,20.65-18.55,34.84-21.28c12.82-2.46,25.42-1.12,38.29,4.08c0-6.97,0-13.53,0-20.09c0-6-0.28-12.01,0.07-17.99
			c0.51-8.69-2.94-8.74-9.5-10.02c-1.91-0.37-3.95-0.06-5.86-0.06c-1.26-6.14-1-6.28,4.64-7.05c9.06-1.24,18.2-2.27,27.08-4.37
			c5.3-1.26,5.62,0.78,5.61,4.81C617.96,36.67,618,55.99,618,75.31c0,29.49,0.15,58.97-0.08,88.46
			c-0.08,10.27,3.27,9.53,10.71,11.11C630.5,175.28,632.54,174.94,634.92,174.94z M596,123.28c0-8.49,0.23-16.99-0.07-25.48
			c-0.29-8.26-4.32-14.67-11.37-18.91c-16.24-9.76-37.08-1.56-43.58,16.74c-6.81,19.21-7.08,38.41-0.04,57.68
			c4,10.95,15.65,22.97,34.97,18.69c11.06-2.45,20.79-11.56,20.13-27.25C595.75,137.62,596,130.44,596,123.28z"/>
		<path class="st1" d="M34.2,60.76c-1.78,0-3.72,0-5.7,0c-0.19-0.62-0.44-1.08-0.45-1.54c-0.02-11.82-0.02-23.64-0.02-35.87
			c44.17,0,88.21,0,132.6,0c0,12.23,0,24.61,0,37.3c-1.9,0-3.83,0-5.71,0c-2.01-6.63-3.35-13.75-6.4-20.04
			c-1.6-3.3-5.93-6.75-9.5-7.36c-10.64-1.8-21.52-2.22-32.74-3.21c-0.14,2.83-0.28,4.43-0.28,6.04C106,78.72,106,121.36,106,164.01
			c0,6.94,2.51,9.54,9.31,9.97c2.61,0.16,5.18,0.76,7.79,0.94c2.45,0.17,4.92,0.04,7.64,0.04c0,2.36,0,4.3,0,6.62
			c-23.95,0-48,0-72.39,0c0-1.95,0-4,0-6.19c5.38-0.48,10.75-0.98,16.13-1.43c5.43-0.45,8.5-3.26,8.5-8.23
			c0.03-44.14,0.01-88.29,0-132.43c0-0.63-0.15-1.26-0.41-3.2c-11.25,0.98-22.41,1.5-33.41,3.12c-4.64,0.68-8.56,4.28-10.08,9.15
			C37.25,48.23,35.9,54.26,34.2,60.76z"/>
		<path class="st1" d="M759.27,123.05c-0.61,15.16-2.05,27.19-8.03,38.03c-7.1,12.89-18.77,19.85-32.84,22.56
			c-13.42,2.58-26.76,1.8-39.64-3.35c-13.21-5.28-21.53-15.05-25.77-28.34c-5.53-17.34-5.49-34.83,0.02-52.16
			c5.85-18.39,21.28-29.77,40.51-32.02c12.9-1.51,25.15-0.5,37.05,4.44c13.55,5.63,21.4,16.43,25.22,30.03
			C757.95,109.89,758.47,118.01,759.27,123.05z M672.57,126.12c0.48,4.75,1.11,9.49,1.39,14.25c0.57,9.69,3.59,18.49,9.01,26.51
			c5.24,7.75,17.93,11.85,27.16,9.59c12.91-3.17,18.34-12.74,21.79-24.08c3.26-10.68,3.49-21.75,3.03-32.8
			c-0.44-10.5-2.17-20.72-7.14-30.24c-5.18-9.92-13.47-14.41-24.32-14.35c-10.56,0.06-18.37,4.84-23.3,14.36
			C674.22,100.92,672.83,113.33,672.57,126.12z"/>
		<path class="st1" d="M417.9,121.95c0.41,14.54,0.91,28.3,9.71,40.29c5.05,6.87,11.95,9.88,20.01,10.68
			c18.46,1.83,29.6-7.95,36.89-24.12c2.48,1.31,4.82,2.54,7.63,4.02c-2.79,4.96-5.28,10.12-8.43,14.83
			c-7.38,11.03-18.79,15.77-31.2,17.05c-12.8,1.32-25.39-0.34-36.95-7.39c-11.46-6.99-16.65-17.77-19.41-29.94
			c-3.27-14.43-3.32-29.09,0.93-43.37c5.96-20,18.3-32.77,39.84-36.16c10.01-1.58,19.65-0.92,29.09,2.23
			c15.45,5.15,22.97,16.96,25.95,32.24c0.59,3.05,0.95,6.18,0.99,9.28c0.1,7.83-2.46,10.36-10.25,10.37
			c-19.49,0.03-38.99,0.01-58.48,0.01C422.4,121.95,420.58,121.95,417.9,121.95z M417.58,112.94c15.77,0,30.57,0.09,45.35-0.06
			c3.83-0.04,6.21-2.57,5.98-6.39c-0.29-4.87-0.91-9.76-1.97-14.52c-3.29-14.91-20.95-21.99-33.79-13.69
			C420.71,86.31,419.78,99.44,417.58,112.94z"/>
		<path class="st1" d="M889.84,121.95c0.56,14.52,0.97,28.19,9.61,40.07c5,6.87,11.84,10.06,19.9,10.88
			c17.1,1.74,28.53-6.32,35.74-21.32c0.42-0.88,1.02-1.67,1.67-2.71c2.26,1.21,4.53,2.41,7.46,3.97
			c-2.95,5.06-5.72,10.37-9.02,15.33c-5.96,8.96-15.09,13.36-25.15,15.62c-10.42,2.34-20.88,1.51-31.19-1.39
			c-17.74-4.99-26.93-17.75-30.7-34.76c-3.2-14.41-3.35-29.03,0.85-43.39c5.78-19.75,18.28-33.15,40.13-36.44
			c10.04-1.52,19.68-0.87,29.08,2.32c15.38,5.22,22.9,17.07,25.74,32.41c0.57,3.05,0.95,6.18,0.99,9.28
			c0.08,7.57-2.48,10.12-9.98,10.13c-19.66,0.04-39.32,0.01-58.98,0.01C894.19,121.95,892.39,121.95,889.84,121.95z M889.73,112.91
			c15.72,0,30.83,0.16,45.94-0.12c3.43-0.07,5.62-2.87,5.28-6.53c-0.46-5.03-0.59-10.25-2.11-14.99
			c-4.94-15.4-20.12-20.92-33.42-13.05C892.55,85.83,891.64,99.35,889.73,112.91z"/>
		<path class="st1" d="M1057,101.83c-2.46,0-4.28,0-6.21,0c-1.39-4.23-2.36-8.7-4.27-12.72c-6.68-14.08-23.29-18.52-36.1-9.92
			c-9.21,6.18-8.74,21.65,1.59,27.55c7.54,4.31,16.09,6.84,24.18,10.19c9.89,4.09,19.45,8.56,24.39,19.04
			c6.14,13.03,4.31,30.33-7.99,39.6c-11.7,8.81-25.18,10.56-39.61,8.64c-7.96-1.06-15.24-3.29-22.27-6.91
			c-3.25-1.67-4.72-3.87-4.83-7.74c-0.2-6.71-1.22-13.4-1.82-20.1c-0.15-1.62-0.02-3.27-0.02-5.2c2.23,0,4.17,0,5.98,0
			c2.28,5.39,4.21,11.09,7,16.32c5.49,10.31,14.12,16.05,26.05,16.4c12.79,0.38,19.2-6.85,21.58-14.31
			c2.78-8.73-2.03-18.79-11.85-23.59c-7.56-3.7-15.8-5.99-23.62-9.19c-8.8-3.61-16.48-8.78-20.54-17.81
			c-6.84-15.19-0.21-34.55,16.58-41.02c14.77-5.7,29.73-5.36,44.65-0.09c5.09,1.8,7.83,4.47,7.27,10.47
			C1056.53,88,1057,94.68,1057,101.83z"/>
		<path class="st1" d="M837.76,174.95c0,2.66,0,4.6,0,6.77c-20.17,0-40.1,0-60.4,0c0-2.06,0-4.11,0-6.25
			c3.65-0.51,7.36-0.92,11.03-1.56c3.77-0.66,5.61-3.03,5.61-6.89c-0.01-26.66,0.03-53.31-0.04-79.97
			c-0.01-5.48-2.44-7.33-10.04-8.06c-1.79-0.17-3.6-0.03-5.45-0.03c-1.37-4.91,0.1-6.6,5.01-7.16c9.68-1.1,19.26-3.08,29.33-4.77
			c1.07,5.9,2.11,11.7,3.08,17.07c7.52-5.17,14.61-10.42,22.09-15.03c4.27-2.63,9.16-3.33,14.04-0.64
			c5.92,3.27,7.91,9.24,4.95,15.58c-2.96,6.32-7.98,8.32-14.55,5.66c-2.12-0.86-4.1-2.04-6.18-3c-9.17-4.21-14.23-0.97-18.13,7.99
			c-1.51,3.47-2,7.62-2.04,11.47c-0.2,18.49-0.09,36.99-0.09,55.48c0,10.36,2.47,12.91,13.03,13.33
			C831.83,175.04,834.63,174.95,837.76,174.95z"/>
		<path class="st0" d="M596,123.28c0,7.16-0.25,14.33,0.05,21.48c0.66,15.69-9.07,24.8-20.13,27.25
			c-19.32,4.28-30.97-7.74-34.97-18.69c-7.04-19.27-6.78-38.47,0.04-57.68c6.49-18.3,27.33-26.5,43.58-16.74
			c7.04,4.23,11.08,10.65,11.37,18.91C596.23,106.29,596,114.79,596,123.28z"/>
		<path class="st0" d="M672.57,126.12c0.27-12.79,1.65-25.2,7.63-36.76c4.92-9.51,12.74-14.3,23.3-14.36
			c10.85-0.06,19.14,4.44,24.32,14.35c4.97,9.51,6.7,19.74,7.14,30.24c0.47,11.05,0.23,22.12-3.03,32.8
			c-3.46,11.34-8.88,20.91-21.79,24.08c-9.22,2.26-21.91-1.84-27.16-9.59c-5.43-8.03-8.44-16.82-9.01-26.51
			C673.68,135.6,673.04,130.86,672.57,126.12z"/>
		<path class="st0" d="M417.58,112.94c2.2-13.5,3.14-26.63,15.57-34.66c12.85-8.3,30.5-1.22,33.79,13.69
			c1.05,4.76,1.67,9.66,1.97,14.52c0.23,3.82-2.14,6.35-5.98,6.39C448.14,113.03,433.35,112.94,417.58,112.94z"/>
		<path class="st0" d="M889.73,112.91c1.91-13.56,2.83-27.09,15.69-34.7c13.3-7.87,28.49-2.35,33.42,13.05
			c1.52,4.74,1.65,9.96,2.11,14.99c0.34,3.67-1.85,6.47-5.28,6.53C920.56,113.08,905.45,112.91,889.73,112.91z"/>
	</g>
	<path class="st2" d="M236.3,181.66c-0.72-2.84-1.71-5.89-2.26-9.03c-1.66-9.41-5.63-13.04-14.13-13.5
		c-13.09-0.7-26.24-0.18-39.91-0.18c0,2.52,0,4.63,0,6.74c0,16.66-0.02,33.33,0.01,49.99c0.01,8.17,3.58,11.9,11.82,12.25
		c9.59,0.41,19.23,1.32,28.77,0.8c6.53-0.36,13.39-1.83,19.3-4.55c8.36-3.85,11.22-12.27,13.11-20.79c0.88-3.98,1.56-8.15,8.27-5.82
		c-0.83,12.74-1.68,25.83-2.55,39.14c-40.49,0-80.75,0-121.37,0c0-2.06,0-4.11,0-6.27c4.15-0.49,8.36-0.91,12.55-1.52
		c4.54-0.66,7.07-3.35,7.07-7.99c0.03-42.32,0.04-84.65-0.01-126.97c-0.01-4.76-2.83-7.5-7.57-8.02c-1.94-0.21-3.85-0.78-5.79-0.94
		c-1.97-0.17-3.96-0.04-6.43-0.04c0-2.57,0-4.51,0-6.73c38.57,0,76.96,0,115.58,0c0,12.48,0,24.75,0,37.37c-2.08,0-4.13,0-5.79,0
		c-2.13-6.55-3.98-13.1-6.41-19.41c-1.76-4.57-5.67-7.4-10.42-8.14c-6.63-1.03-13.34-1.73-20.04-2.02
		c-7.98-0.34-15.99-0.04-23.99-0.1c-3.76-0.03-6.06,1.57-6.07,5.44c-0.06,19.3-0.03,38.61-0.03,58.58c8.89,0,17.49,0.11,26.08-0.04
		c5.59-0.1,11.18-0.51,16.76-0.89c6.78-0.46,9.33-5.39,11.01-10.95c0.75-2.47,0.9-5.11,1.36-7.88c2.1,0,4.06,0,6.52,0
		c0,14.65,0,29.39,0,43.85L236.3,181.66z"/>
	<path class="st1" d="M315.89,126.32c-3.04-4.78-6.05-9.57-9.48-15"/>
	<path class="st1" d="M299.49,104.86c0.69-1.04,0.95-3.17,0.35-4.14"/>
</g>
<g id="Layer_2">
	<g>
		<path class="st2" d="M288.19,237.74h-5.47v-3.46h-0.1c-0.8,1.34-1.91,2.37-3.34,3.07c-1.42,0.7-2.95,1.06-4.58,1.06
			c-1.76,0-3.34-0.33-4.73-0.98s-2.58-1.54-3.55-2.64s-1.73-2.4-2.26-3.89c-0.53-1.49-0.79-3.08-0.79-4.78
			c0-1.7,0.27-3.28,0.82-4.75c0.54-1.47,1.31-2.75,2.3-3.84c0.99-1.09,2.18-1.94,3.55-2.57c1.38-0.62,2.88-0.94,4.51-0.94
			c1.06,0,2,0.12,2.83,0.36c0.83,0.24,1.56,0.54,2.18,0.89c0.62,0.35,1.16,0.74,1.61,1.15c0.45,0.42,0.82,0.82,1.1,1.2h0.14v-16.18
			h5.76V237.74z M269.23,226.13c0,0.9,0.14,1.79,0.41,2.69c0.27,0.9,0.68,1.7,1.22,2.4c0.54,0.7,1.23,1.28,2.06,1.73
			c0.83,0.45,1.81,0.67,2.93,0.67c1.06,0,2-0.22,2.83-0.65c0.83-0.43,1.54-1,2.14-1.7c0.59-0.7,1.04-1.5,1.34-2.38
			c0.3-0.88,0.46-1.77,0.46-2.66c0-0.9-0.15-1.79-0.46-2.69c-0.3-0.9-0.75-1.7-1.34-2.4c-0.59-0.7-1.3-1.28-2.14-1.73
			c-0.83-0.45-1.78-0.67-2.83-0.67c-1.12,0-2.1,0.22-2.93,0.65c-0.83,0.43-1.52,1-2.06,1.7c-0.54,0.7-0.95,1.5-1.22,2.38
			C269.37,224.34,269.23,225.23,269.23,226.13z"/>
		<path class="st2" d="M294.14,206.88c0-0.93,0.34-1.74,1.03-2.42c0.69-0.69,1.56-1.03,2.62-1.03c1.06,0,1.94,0.33,2.66,0.98
			c0.72,0.66,1.08,1.48,1.08,2.47c0,0.99-0.36,1.82-1.08,2.47c-0.72,0.66-1.61,0.98-2.66,0.98c-1.06,0-1.93-0.34-2.62-1.03
			C294.48,208.61,294.14,207.81,294.14,206.88z M294.95,214.7h5.76v23.04h-5.76V214.7z"/>
		<path class="st2" d="M304.4,219.31v-4.61h4.03v-6.67h5.66v6.67h5.76v4.61h-5.76v10.7c0,1.02,0.18,1.87,0.55,2.54
			c0.37,0.67,1.19,1.01,2.47,1.01c0.38,0,0.8-0.04,1.25-0.12c0.45-0.08,0.85-0.2,1.2-0.36l0.19,4.51c-0.51,0.19-1.12,0.34-1.82,0.46
			c-0.7,0.11-1.38,0.17-2.02,0.17c-1.54,0-2.78-0.22-3.74-0.65s-1.72-1.02-2.28-1.78c-0.56-0.75-0.94-1.62-1.15-2.59
			c-0.21-0.98-0.31-2.02-0.31-3.14v-10.75H304.4z"/>
		<path class="st2" d="M322.34,226.13c0-1.82,0.33-3.48,0.98-4.97c0.66-1.49,1.54-2.76,2.66-3.82c1.12-1.06,2.45-1.87,3.98-2.45
			c1.54-0.58,3.17-0.86,4.9-0.86s3.36,0.29,4.9,0.86c1.54,0.58,2.86,1.39,3.98,2.45c1.12,1.06,2.01,2.33,2.66,3.82
			c0.66,1.49,0.98,3.14,0.98,4.97c0,1.82-0.33,3.49-0.98,4.99c-0.66,1.5-1.54,2.79-2.66,3.86c-1.12,1.07-2.45,1.91-3.98,2.52
			c-1.54,0.61-3.17,0.91-4.9,0.91s-3.36-0.3-4.9-0.91c-1.54-0.61-2.86-1.45-3.98-2.52c-1.12-1.07-2.01-2.36-2.66-3.86
			C322.67,229.61,322.34,227.95,322.34,226.13z M328.2,226.13c0,0.9,0.14,1.79,0.41,2.69c0.27,0.9,0.68,1.7,1.22,2.4
			c0.54,0.7,1.23,1.28,2.06,1.73c0.83,0.45,1.82,0.67,2.98,0.67c1.15,0,2.14-0.22,2.98-0.67c0.83-0.45,1.52-1.02,2.06-1.73
			c0.54-0.7,0.95-1.5,1.22-2.4c0.27-0.9,0.41-1.79,0.41-2.69c0-0.9-0.14-1.78-0.41-2.66c-0.27-0.88-0.68-1.67-1.22-2.38
			c-0.54-0.7-1.23-1.27-2.06-1.7c-0.83-0.43-1.82-0.65-2.98-0.65c-1.15,0-2.14,0.22-2.98,0.65c-0.83,0.43-1.52,1-2.06,1.7
			c-0.54,0.7-0.95,1.5-1.22,2.38C328.33,224.34,328.2,225.23,328.2,226.13z"/>
		<path class="st2" d="M352.71,214.7h5.52v3.84h0.1c0.64-1.34,1.54-2.43,2.69-3.26c1.15-0.83,2.5-1.25,4.03-1.25
			c0.22,0,0.46,0.01,0.72,0.02c0.26,0.02,0.48,0.06,0.67,0.12v5.28c-0.38-0.1-0.71-0.16-0.98-0.19c-0.27-0.03-0.54-0.05-0.79-0.05
			c-1.31,0-2.37,0.24-3.17,0.72c-0.8,0.48-1.42,1.06-1.87,1.73c-0.45,0.67-0.75,1.36-0.91,2.06c-0.16,0.7-0.24,1.26-0.24,1.68v12.34
			h-5.76V214.7z"/>
		<path class="st2" d="M369.38,206.88c0-0.93,0.34-1.74,1.03-2.42c0.69-0.69,1.56-1.03,2.62-1.03c1.06,0,1.94,0.33,2.66,0.98
			c0.72,0.66,1.08,1.48,1.08,2.47c0,0.99-0.36,1.82-1.08,2.47c-0.72,0.66-1.61,0.98-2.66,0.98c-1.06,0-1.93-0.34-2.62-1.03
			C369.72,208.61,369.38,207.81,369.38,206.88z M370.2,214.7h5.76v23.04h-5.76V214.7z"/>
		<path class="st2" d="M396.95,234.81h-0.14c-0.58,1.02-1.5,1.86-2.78,2.52c-1.28,0.66-2.74,0.98-4.37,0.98
			c-0.93,0-1.9-0.12-2.9-0.36c-1.01-0.24-1.94-0.64-2.78-1.2c-0.85-0.56-1.55-1.3-2.11-2.21c-0.56-0.91-0.84-2.04-0.84-3.38
			c0-1.73,0.49-3.1,1.46-4.13c0.98-1.02,2.23-1.81,3.77-2.35c1.54-0.54,3.24-0.9,5.11-1.08c1.87-0.18,3.7-0.26,5.5-0.26v-0.58
			c0-1.44-0.52-2.5-1.56-3.19c-1.04-0.69-2.28-1.03-3.72-1.03c-1.22,0-2.38,0.26-3.5,0.77c-1.12,0.51-2.05,1.14-2.78,1.87l-2.98-3.5
			c1.31-1.22,2.82-2.13,4.54-2.74s3.45-0.91,5.21-0.91c2.05,0,3.74,0.29,5.06,0.86c1.33,0.58,2.38,1.33,3.14,2.26
			c0.77,0.93,1.3,1.97,1.61,3.12c0.3,1.15,0.46,2.3,0.46,3.46v14.02h-5.38V234.81z M396.85,227.23h-1.3c-0.93,0-1.9,0.04-2.93,0.12
			c-1.02,0.08-1.97,0.26-2.83,0.53c-0.86,0.27-1.58,0.66-2.16,1.15c-0.58,0.5-0.86,1.18-0.86,2.04c0,0.54,0.12,1,0.36,1.37
			c0.24,0.37,0.55,0.66,0.94,0.89c0.38,0.22,0.82,0.38,1.3,0.48s0.96,0.14,1.44,0.14c1.98,0,3.49-0.53,4.51-1.58
			c1.02-1.06,1.54-2.5,1.54-4.32V227.23z"/>
		<path class="st2" d="M408.93,201.45h5.76v36.29h-5.76V201.45z"/>
		<path class="st2" d="M457.69,237.74h-5.47v-3.46h-0.1c-0.8,1.34-1.91,2.37-3.34,3.07c-1.42,0.7-2.95,1.06-4.58,1.06
			c-1.76,0-3.34-0.33-4.73-0.98s-2.58-1.54-3.55-2.64s-1.73-2.4-2.26-3.89c-0.53-1.49-0.79-3.08-0.79-4.78
			c0-1.7,0.27-3.28,0.82-4.75c0.54-1.47,1.31-2.75,2.3-3.84c0.99-1.09,2.18-1.94,3.55-2.57c1.38-0.62,2.88-0.94,4.51-0.94
			c1.06,0,2,0.12,2.83,0.36c0.83,0.24,1.56,0.54,2.18,0.89c0.62,0.35,1.16,0.74,1.61,1.15c0.45,0.42,0.82,0.82,1.1,1.2h0.14v-16.18
			h5.76V237.74z M438.73,226.13c0,0.9,0.14,1.79,0.41,2.69c0.27,0.9,0.68,1.7,1.22,2.4c0.54,0.7,1.23,1.28,2.06,1.73
			c0.83,0.45,1.81,0.67,2.93,0.67c1.06,0,2-0.22,2.83-0.65c0.83-0.43,1.54-1,2.14-1.7c0.59-0.7,1.04-1.5,1.34-2.38
			c0.3-0.88,0.46-1.77,0.46-2.66c0-0.9-0.15-1.79-0.46-2.69c-0.3-0.9-0.75-1.7-1.34-2.4c-0.59-0.7-1.3-1.28-2.14-1.73
			c-0.83-0.45-1.78-0.67-2.83-0.67c-1.12,0-2.1,0.22-2.93,0.65c-0.83,0.43-1.52,1-2.06,1.7c-0.54,0.7-0.95,1.5-1.22,2.38
			C438.87,224.34,438.73,225.23,438.73,226.13z"/>
		<path class="st2" d="M486.45,226.51c0,0.26,0,0.51,0,0.77c0,0.26-0.02,0.51-0.05,0.77h-17.52c0.06,0.83,0.28,1.59,0.65,2.28
			c0.37,0.69,0.86,1.28,1.46,1.78c0.61,0.5,1.3,0.89,2.06,1.18s1.57,0.43,2.4,0.43c1.44,0,2.66-0.26,3.65-0.79
			c0.99-0.53,1.81-1.26,2.45-2.18l3.84,3.07c-2.27,3.07-5.57,4.61-9.89,4.61c-1.79,0-3.44-0.28-4.94-0.84
			c-1.5-0.56-2.81-1.35-3.91-2.38c-1.1-1.02-1.97-2.28-2.59-3.77s-0.94-3.18-0.94-5.06c0-1.86,0.31-3.54,0.94-5.06
			c0.62-1.52,1.48-2.82,2.57-3.89c1.09-1.07,2.38-1.9,3.86-2.5c1.49-0.59,3.1-0.89,4.82-0.89c1.6,0,3.08,0.26,4.44,0.79
			c1.36,0.53,2.54,1.31,3.53,2.35c0.99,1.04,1.77,2.34,2.33,3.89C486.17,222.61,486.45,224.43,486.45,226.51z M480.69,223.92
			c0-0.74-0.1-1.44-0.31-2.11c-0.21-0.67-0.54-1.26-0.98-1.78c-0.45-0.51-1.02-0.92-1.7-1.22c-0.69-0.3-1.5-0.46-2.42-0.46
			c-1.73,0-3.19,0.52-4.39,1.56c-1.2,1.04-1.86,2.38-1.99,4.01H480.69z"/>
		<path class="st2" d="M491.87,201.45h5.76v36.29h-5.76V201.45z"/>
		<path class="st2" d="M517.5,203.76h6.05v33.98h-6.05V203.76z"/>
		<path class="st2" d="M530.63,214.7h5.47v3.7h0.1c0.51-1.15,1.4-2.17,2.66-3.05c1.26-0.88,2.76-1.32,4.49-1.32
			c1.5,0,2.79,0.26,3.86,0.79c1.07,0.53,1.95,1.22,2.64,2.09c0.69,0.86,1.19,1.86,1.51,2.98c0.32,1.12,0.48,2.27,0.48,3.46v14.4
			h-5.76v-12.77c0-0.67-0.05-1.38-0.14-2.11c-0.1-0.74-0.3-1.4-0.62-1.99c-0.32-0.59-0.76-1.08-1.32-1.46
			c-0.56-0.38-1.3-0.58-2.23-0.58c-0.93,0-1.73,0.18-2.4,0.55c-0.67,0.37-1.22,0.84-1.66,1.42c-0.43,0.58-0.76,1.24-0.98,1.99
			c-0.22,0.75-0.34,1.51-0.34,2.28v12.67h-5.76V214.7z"/>
		<path class="st2" d="M571.26,220.85c-0.51-0.67-1.22-1.26-2.11-1.75c-0.9-0.5-1.87-0.74-2.93-0.74c-0.93,0-1.78,0.19-2.54,0.58
			c-0.77,0.38-1.15,1.02-1.15,1.92c0,0.9,0.42,1.53,1.27,1.9c0.85,0.37,2.09,0.74,3.72,1.13c0.86,0.19,1.74,0.45,2.62,0.77
			c0.88,0.32,1.68,0.74,2.4,1.27c0.72,0.53,1.3,1.18,1.75,1.97c0.45,0.78,0.67,1.74,0.67,2.86c0,1.41-0.26,2.6-0.79,3.58
			c-0.53,0.98-1.23,1.77-2.11,2.38c-0.88,0.61-1.9,1.05-3.07,1.32c-1.17,0.27-2.38,0.41-3.62,0.41c-1.79,0-3.54-0.33-5.23-0.98
			c-1.7-0.66-3.1-1.59-4.22-2.81l3.79-3.55c0.64,0.83,1.47,1.52,2.5,2.06c1.02,0.54,2.16,0.82,3.41,0.82c0.42,0,0.84-0.05,1.27-0.14
			s0.83-0.25,1.2-0.46c0.37-0.21,0.66-0.49,0.89-0.84c0.22-0.35,0.34-0.78,0.34-1.3c0-0.96-0.44-1.65-1.32-2.06
			c-0.88-0.42-2.2-0.83-3.96-1.25c-0.86-0.19-1.7-0.44-2.52-0.74c-0.82-0.3-1.54-0.7-2.18-1.2c-0.64-0.5-1.15-1.11-1.54-1.85
			c-0.38-0.74-0.58-1.65-0.58-2.74c0-1.28,0.26-2.38,0.79-3.31c0.53-0.93,1.22-1.69,2.09-2.28c0.86-0.59,1.84-1.03,2.93-1.32
			c1.09-0.29,2.21-0.43,3.36-0.43c1.66,0,3.29,0.29,4.87,0.86c1.58,0.58,2.84,1.46,3.77,2.64L571.26,220.85z"/>
		<path class="st2" d="M577.75,219.31v-4.61h4.03v-6.67h5.66v6.67h5.76v4.61h-5.76v10.7c0,1.02,0.18,1.87,0.55,2.54
			c0.37,0.67,1.19,1.01,2.47,1.01c0.38,0,0.8-0.04,1.25-0.12c0.45-0.08,0.85-0.2,1.2-0.36l0.19,4.51c-0.51,0.19-1.12,0.34-1.82,0.46
			c-0.7,0.11-1.38,0.17-2.02,0.17c-1.54,0-2.78-0.22-3.74-0.65s-1.72-1.02-2.28-1.78c-0.56-0.75-0.94-1.62-1.15-2.59
			c-0.21-0.98-0.31-2.02-0.31-3.14v-10.75H577.75z"/>
		<path class="st2" d="M596.55,206.88c0-0.93,0.34-1.74,1.03-2.42c0.69-0.69,1.56-1.03,2.62-1.03c1.06,0,1.94,0.33,2.66,0.98
			c0.72,0.66,1.08,1.48,1.08,2.47c0,0.99-0.36,1.82-1.08,2.47c-0.72,0.66-1.61,0.98-2.66,0.98c-1.06,0-1.93-0.34-2.62-1.03
			C596.89,208.61,596.55,207.81,596.55,206.88z M597.36,214.7h5.76v23.04h-5.76V214.7z"/>
		<path class="st2" d="M606.81,219.31v-4.61h4.03v-6.67h5.66v6.67h5.76v4.61h-5.76v10.7c0,1.02,0.18,1.87,0.55,2.54
			c0.37,0.67,1.19,1.01,2.47,1.01c0.38,0,0.8-0.04,1.25-0.12c0.45-0.08,0.85-0.2,1.2-0.36l0.19,4.51c-0.51,0.19-1.12,0.34-1.82,0.46
			c-0.7,0.11-1.38,0.17-2.02,0.17c-1.54,0-2.78-0.22-3.74-0.65s-1.72-1.02-2.28-1.78c-0.56-0.75-0.94-1.62-1.15-2.59
			c-0.21-0.98-0.31-2.02-0.31-3.14v-10.75H606.81z"/>
		<path class="st2" d="M647.44,237.74h-5.47v-3.7h-0.1c-0.51,1.15-1.4,2.17-2.66,3.05c-1.26,0.88-2.76,1.32-4.49,1.32
			c-1.5,0-2.79-0.26-3.86-0.79c-1.07-0.53-1.95-1.22-2.64-2.09c-0.69-0.86-1.19-1.86-1.51-2.98c-0.32-1.12-0.48-2.27-0.48-3.46
			v-14.4h5.76v12.77c0,0.67,0.05,1.38,0.14,2.11c0.1,0.74,0.3,1.4,0.62,1.99c0.32,0.59,0.76,1.08,1.32,1.46
			c0.56,0.38,1.3,0.58,2.23,0.58c0.9,0,1.69-0.18,2.38-0.55c0.69-0.37,1.25-0.84,1.68-1.42c0.43-0.58,0.76-1.24,0.98-1.99
			c0.22-0.75,0.34-1.51,0.34-2.28V214.7h5.76V237.74z"/>
		<path class="st2" d="M651.23,219.31v-4.61h4.03v-6.67h5.66v6.67h5.76v4.61h-5.76v10.7c0,1.02,0.18,1.87,0.55,2.54
			c0.37,0.67,1.19,1.01,2.47,1.01c0.38,0,0.8-0.04,1.25-0.12c0.45-0.08,0.85-0.2,1.2-0.36l0.19,4.51c-0.51,0.19-1.12,0.34-1.82,0.46
			c-0.7,0.11-1.38,0.17-2.02,0.17c-1.54,0-2.78-0.22-3.74-0.65s-1.72-1.02-2.28-1.78c-0.56-0.75-0.94-1.62-1.15-2.59
			c-0.21-0.98-0.31-2.02-0.31-3.14v-10.75H651.23z"/>
		<path class="st2" d="M669.17,226.13c0-1.82,0.33-3.48,0.98-4.97c0.66-1.49,1.54-2.76,2.66-3.82c1.12-1.06,2.45-1.87,3.98-2.45
			c1.54-0.58,3.17-0.86,4.9-0.86s3.36,0.29,4.9,0.86c1.54,0.58,2.86,1.39,3.98,2.45c1.12,1.06,2.01,2.33,2.66,3.82
			s0.98,3.14,0.98,4.97c0,1.82-0.33,3.49-0.98,4.99c-0.66,1.5-1.54,2.79-2.66,3.86c-1.12,1.07-2.45,1.91-3.98,2.52
			c-1.54,0.61-3.17,0.91-4.9,0.91s-3.36-0.3-4.9-0.91c-1.54-0.61-2.86-1.45-3.98-2.52c-1.12-1.07-2.01-2.36-2.66-3.86
			C669.5,229.61,669.17,227.95,669.17,226.13z M675.03,226.13c0,0.9,0.14,1.79,0.41,2.69c0.27,0.9,0.68,1.7,1.22,2.4
			c0.54,0.7,1.23,1.28,2.06,1.73c0.83,0.45,1.82,0.67,2.98,0.67c1.15,0,2.14-0.22,2.98-0.67c0.83-0.45,1.52-1.02,2.06-1.73
			c0.54-0.7,0.95-1.5,1.22-2.4c0.27-0.9,0.41-1.79,0.41-2.69c0-0.9-0.14-1.78-0.41-2.66c-0.27-0.88-0.68-1.67-1.22-2.38
			c-0.54-0.7-1.23-1.27-2.06-1.7c-0.83-0.43-1.82-0.65-2.98-0.65c-1.15,0-2.14,0.22-2.98,0.65c-0.83,0.43-1.52,1-2.06,1.7
			c-0.54,0.7-0.95,1.5-1.22,2.38C675.16,224.34,675.03,225.23,675.03,226.13z"/>
		<path class="st2" d="M735.8,237.74h-5.47v-3.46h-0.1c-0.8,1.34-1.91,2.37-3.34,3.07c-1.42,0.7-2.95,1.06-4.58,1.06
			c-1.76,0-3.34-0.33-4.73-0.98s-2.58-1.54-3.55-2.64c-0.98-1.1-1.73-2.4-2.26-3.89c-0.53-1.49-0.79-3.08-0.79-4.78
			c0-1.7,0.27-3.28,0.82-4.75c0.54-1.47,1.31-2.75,2.3-3.84c0.99-1.09,2.18-1.94,3.55-2.57c1.38-0.62,2.88-0.94,4.51-0.94
			c1.06,0,2,0.12,2.83,0.36c0.83,0.24,1.56,0.54,2.18,0.89c0.62,0.35,1.16,0.74,1.61,1.15c0.45,0.42,0.82,0.82,1.1,1.2h0.14v-16.18
			h5.76V237.74z M716.84,226.13c0,0.9,0.14,1.79,0.41,2.69c0.27,0.9,0.68,1.7,1.22,2.4c0.54,0.7,1.23,1.28,2.06,1.73
			c0.83,0.45,1.81,0.67,2.93,0.67c1.06,0,2-0.22,2.83-0.65c0.83-0.43,1.54-1,2.14-1.7c0.59-0.7,1.04-1.5,1.34-2.38
			c0.3-0.88,0.46-1.77,0.46-2.66c0-0.9-0.15-1.79-0.46-2.69c-0.3-0.9-0.75-1.7-1.34-2.4c-0.59-0.7-1.3-1.28-2.14-1.73
			c-0.83-0.45-1.78-0.67-2.83-0.67c-1.12,0-2.1,0.22-2.93,0.65c-0.83,0.43-1.52,1-2.06,1.7c-0.54,0.7-0.95,1.5-1.22,2.38
			C716.97,224.34,716.84,225.23,716.84,226.13z"/>
		<path class="st2" d="M764.55,226.51c0,0.26,0,0.51,0,0.77c0,0.26-0.02,0.51-0.05,0.77h-17.52c0.06,0.83,0.28,1.59,0.65,2.28
			c0.37,0.69,0.86,1.28,1.46,1.78c0.61,0.5,1.3,0.89,2.06,1.18c0.77,0.29,1.57,0.43,2.4,0.43c1.44,0,2.66-0.26,3.65-0.79
			c0.99-0.53,1.81-1.26,2.45-2.18l3.84,3.07c-2.27,3.07-5.57,4.61-9.89,4.61c-1.79,0-3.44-0.28-4.94-0.84s-2.81-1.35-3.91-2.38
			c-1.1-1.02-1.97-2.28-2.59-3.77s-0.94-3.18-0.94-5.06c0-1.86,0.31-3.54,0.94-5.06c0.62-1.52,1.48-2.82,2.57-3.89
			c1.09-1.07,2.38-1.9,3.86-2.5c1.49-0.59,3.1-0.89,4.82-0.89c1.6,0,3.08,0.26,4.44,0.79c1.36,0.53,2.54,1.31,3.53,2.35
			c0.99,1.04,1.77,2.34,2.33,3.89C764.27,222.61,764.55,224.43,764.55,226.51z M758.79,223.92c0-0.74-0.1-1.44-0.31-2.11
			c-0.21-0.67-0.54-1.26-0.98-1.78c-0.45-0.51-1.02-0.92-1.7-1.22c-0.69-0.3-1.5-0.46-2.42-0.46c-1.73,0-3.19,0.52-4.39,1.56
			c-1.2,1.04-1.87,2.38-1.99,4.01H758.79z"/>
		<path class="st2" d="M782.98,203.76h9.46l8.83,24.14h0.14l8.74-24.14h9.5v33.98h-6v-27.31h-0.1l-10.32,27.31h-4.22l-10.18-27.31
			h-0.1v27.31h-5.76V203.76z"/>
		<path class="st2" d="M841.17,234.81h-0.14c-0.58,1.02-1.5,1.86-2.78,2.52c-1.28,0.66-2.74,0.98-4.37,0.98
			c-0.93,0-1.9-0.12-2.9-0.36c-1.01-0.24-1.94-0.64-2.78-1.2c-0.85-0.56-1.55-1.3-2.11-2.21c-0.56-0.91-0.84-2.04-0.84-3.38
			c0-1.73,0.49-3.1,1.46-4.13c0.98-1.02,2.23-1.81,3.77-2.35c1.54-0.54,3.24-0.9,5.11-1.08c1.87-0.18,3.7-0.26,5.5-0.26v-0.58
			c0-1.44-0.52-2.5-1.56-3.19c-1.04-0.69-2.28-1.03-3.72-1.03c-1.22,0-2.38,0.26-3.5,0.77c-1.12,0.51-2.05,1.14-2.78,1.87l-2.98-3.5
			c1.31-1.22,2.82-2.13,4.54-2.74c1.71-0.61,3.45-0.91,5.21-0.91c2.05,0,3.74,0.29,5.06,0.86c1.33,0.58,2.38,1.33,3.14,2.26
			c0.77,0.93,1.3,1.97,1.61,3.12c0.3,1.15,0.46,2.3,0.46,3.46v14.02h-5.38V234.81z M841.07,227.23h-1.3c-0.93,0-1.9,0.04-2.93,0.12
			c-1.03,0.08-1.97,0.26-2.83,0.53c-0.86,0.27-1.58,0.66-2.16,1.15c-0.58,0.5-0.86,1.18-0.86,2.04c0,0.54,0.12,1,0.36,1.37
			c0.24,0.37,0.55,0.66,0.94,0.89c0.38,0.22,0.82,0.38,1.3,0.48c0.48,0.1,0.96,0.14,1.44,0.14c1.98,0,3.49-0.53,4.51-1.58
			c1.02-1.06,1.54-2.5,1.54-4.32V227.23z"/>
		<path class="st2" d="M849.81,219.31v-4.61h4.03v-6.67h5.66v6.67h5.76v4.61h-5.76v10.7c0,1.02,0.18,1.87,0.55,2.54
			s1.19,1.01,2.47,1.01c0.38,0,0.8-0.04,1.25-0.12c0.45-0.08,0.85-0.2,1.2-0.36l0.19,4.51c-0.51,0.19-1.12,0.34-1.82,0.46
			c-0.7,0.11-1.38,0.17-2.02,0.17c-1.54,0-2.78-0.22-3.74-0.65s-1.72-1.02-2.28-1.78c-0.56-0.75-0.94-1.62-1.15-2.59
			c-0.21-0.98-0.31-2.02-0.31-3.14v-10.75H849.81z"/>
		<path class="st2" d="M891.09,226.51c0,0.26,0,0.51,0,0.77c0,0.26-0.02,0.51-0.05,0.77h-17.52c0.06,0.83,0.28,1.59,0.65,2.28
			c0.37,0.69,0.86,1.28,1.46,1.78c0.61,0.5,1.3,0.89,2.06,1.18c0.77,0.29,1.57,0.43,2.4,0.43c1.44,0,2.66-0.26,3.65-0.79
			c0.99-0.53,1.81-1.26,2.45-2.18l3.84,3.07c-2.27,3.07-5.57,4.61-9.89,4.61c-1.79,0-3.44-0.28-4.94-0.84s-2.81-1.35-3.91-2.38
			c-1.1-1.02-1.97-2.28-2.59-3.77s-0.94-3.18-0.94-5.06c0-1.86,0.31-3.54,0.94-5.06c0.62-1.52,1.48-2.82,2.57-3.89
			c1.09-1.07,2.38-1.9,3.86-2.5c1.49-0.59,3.1-0.89,4.82-0.89c1.6,0,3.08,0.26,4.44,0.79c1.36,0.53,2.54,1.31,3.53,2.35
			c0.99,1.04,1.77,2.34,2.33,3.89C890.8,222.61,891.09,224.43,891.09,226.51z M885.33,223.92c0-0.74-0.1-1.44-0.31-2.11
			c-0.21-0.67-0.54-1.26-0.98-1.78c-0.45-0.51-1.02-0.92-1.7-1.22c-0.69-0.3-1.5-0.46-2.42-0.46c-1.73,0-3.19,0.52-4.39,1.56
			c-1.2,1.04-1.87,2.38-1.99,4.01H885.33z"/>
		<path class="st2" d="M923.99,214.03c1.5,0,2.79,0.26,3.86,0.79c1.07,0.53,1.95,1.22,2.64,2.09c0.69,0.86,1.19,1.86,1.51,2.98
			c0.32,1.12,0.48,2.27,0.48,3.46v14.4h-5.76v-12.77c0-0.67-0.05-1.38-0.14-2.11c-0.1-0.74-0.3-1.4-0.62-1.99
			c-0.32-0.59-0.76-1.08-1.32-1.46c-0.56-0.38-1.3-0.58-2.23-0.58c-0.9,0-1.66,0.19-2.3,0.58c-0.64,0.38-1.17,0.88-1.58,1.49
			c-0.42,0.61-0.72,1.29-0.91,2.04c-0.19,0.75-0.29,1.5-0.29,2.23v12.58h-5.76v-13.92c0-1.44-0.34-2.63-1.03-3.58
			c-0.69-0.94-1.77-1.42-3.24-1.42c-0.86,0-1.62,0.18-2.26,0.55c-0.64,0.37-1.16,0.84-1.56,1.42c-0.4,0.58-0.71,1.24-0.91,1.99
			c-0.21,0.75-0.31,1.51-0.31,2.28v12.67h-5.76V214.7h5.47v3.7h0.1c0.25-0.58,0.6-1.12,1.03-1.63c0.43-0.51,0.94-0.98,1.54-1.39
			c0.59-0.42,1.27-0.74,2.04-0.98c0.77-0.24,1.62-0.36,2.54-0.36c1.79,0,3.28,0.4,4.46,1.2c1.18,0.8,2.1,1.86,2.74,3.17
			c0.77-1.41,1.79-2.49,3.07-3.24C920.76,214.41,922.27,214.03,923.99,214.03z"/>
		<path class="st2" d="M953.31,234.81h-0.14c-0.58,1.02-1.5,1.86-2.78,2.52c-1.28,0.66-2.74,0.98-4.37,0.98
			c-0.93,0-1.9-0.12-2.9-0.36c-1.01-0.24-1.94-0.64-2.78-1.2c-0.85-0.56-1.55-1.3-2.11-2.21c-0.56-0.91-0.84-2.04-0.84-3.38
			c0-1.73,0.49-3.1,1.46-4.13c0.98-1.02,2.23-1.81,3.77-2.35c1.54-0.54,3.24-0.9,5.11-1.08c1.87-0.18,3.7-0.26,5.5-0.26v-0.58
			c0-1.44-0.52-2.5-1.56-3.19c-1.04-0.69-2.28-1.03-3.72-1.03c-1.22,0-2.38,0.26-3.5,0.77c-1.12,0.51-2.05,1.14-2.78,1.87l-2.98-3.5
			c1.31-1.22,2.82-2.13,4.54-2.74c1.71-0.61,3.45-0.91,5.21-0.91c2.05,0,3.74,0.29,5.06,0.86c1.33,0.58,2.38,1.33,3.14,2.26
			c0.77,0.93,1.3,1.97,1.61,3.12c0.3,1.15,0.46,2.3,0.46,3.46v14.02h-5.38V234.81z M953.22,227.23h-1.3c-0.93,0-1.9,0.04-2.93,0.12
			c-1.03,0.08-1.97,0.26-2.83,0.53c-0.86,0.27-1.58,0.66-2.16,1.15c-0.58,0.5-0.86,1.18-0.86,2.04c0,0.54,0.12,1,0.36,1.37
			c0.24,0.37,0.55,0.66,0.94,0.89c0.38,0.22,0.82,0.38,1.3,0.48c0.48,0.1,0.96,0.14,1.44,0.14c1.98,0,3.49-0.53,4.51-1.58
			c1.02-1.06,1.54-2.5,1.54-4.32V227.23z M949.66,203.76h6.53l-6.77,6.91h-4.51L949.66,203.76z"/>
		<path class="st2" d="M961.96,219.31v-4.61h4.03v-6.67h5.66v6.67h5.76v4.61h-5.76v10.7c0,1.02,0.18,1.87,0.55,2.54
			s1.19,1.01,2.47,1.01c0.38,0,0.8-0.04,1.25-0.12c0.45-0.08,0.85-0.2,1.2-0.36l0.19,4.51c-0.51,0.19-1.12,0.34-1.82,0.46
			c-0.7,0.11-1.38,0.17-2.02,0.17c-1.54,0-2.78-0.22-3.74-0.65s-1.72-1.02-2.28-1.78c-0.56-0.75-0.94-1.62-1.15-2.59
			c-0.21-0.98-0.31-2.02-0.31-3.14v-10.75H961.96z"/>
		<path class="st2" d="M980.75,206.88c0-0.93,0.34-1.74,1.03-2.42c0.69-0.69,1.56-1.03,2.62-1.03c1.06,0,1.94,0.33,2.66,0.98
			c0.72,0.66,1.08,1.48,1.08,2.47c0,0.99-0.36,1.82-1.08,2.47c-0.72,0.66-1.61,0.98-2.66,0.98c-1.06,0-1.93-0.34-2.62-1.03
			C981.1,208.61,980.75,207.81,980.75,206.88z M981.57,214.7h5.76v23.04h-5.76V214.7z"/>
		<path class="st2" d="M1009.72,221.09c-0.45-0.64-1.12-1.18-2.02-1.61c-0.9-0.43-1.81-0.65-2.74-0.65c-1.06,0-1.98,0.22-2.78,0.65
			c-0.8,0.43-1.46,1-1.99,1.7c-0.53,0.7-0.92,1.5-1.18,2.38c-0.26,0.88-0.38,1.77-0.38,2.66c0,0.9,0.14,1.78,0.41,2.66
			c0.27,0.88,0.68,1.67,1.22,2.38c0.54,0.7,1.22,1.27,2.04,1.7c0.82,0.43,1.77,0.65,2.86,0.65c0.9,0,1.79-0.18,2.69-0.53
			c0.9-0.35,1.62-0.86,2.16-1.54l3.6,3.65c-0.96,1.02-2.18,1.82-3.67,2.38s-3.1,0.84-4.82,0.84c-1.7,0-3.3-0.27-4.82-0.82
			s-2.85-1.34-3.98-2.4c-1.14-1.06-2.03-2.34-2.69-3.84c-0.66-1.5-0.98-3.22-0.98-5.14c0-1.86,0.33-3.54,0.98-5.04
			c0.66-1.5,1.54-2.78,2.66-3.84c1.12-1.06,2.42-1.87,3.91-2.45c1.49-0.58,3.08-0.86,4.78-0.86c1.7,0,3.34,0.32,4.92,0.96
			c1.58,0.64,2.84,1.52,3.77,2.64L1009.72,221.09z"/>
		<path class="st2" d="M1032.15,234.81h-0.14c-0.58,1.02-1.5,1.86-2.78,2.52c-1.28,0.66-2.74,0.98-4.37,0.98
			c-0.93,0-1.9-0.12-2.9-0.36c-1.01-0.24-1.94-0.64-2.78-1.2c-0.85-0.56-1.55-1.3-2.11-2.21c-0.56-0.91-0.84-2.04-0.84-3.38
			c0-1.73,0.49-3.1,1.46-4.13c0.98-1.02,2.23-1.81,3.77-2.35c1.54-0.54,3.24-0.9,5.11-1.08c1.87-0.18,3.7-0.26,5.5-0.26v-0.58
			c0-1.44-0.52-2.5-1.56-3.19c-1.04-0.69-2.28-1.03-3.72-1.03c-1.22,0-2.38,0.26-3.5,0.77c-1.12,0.51-2.05,1.14-2.78,1.87l-2.98-3.5
			c1.31-1.22,2.82-2.13,4.54-2.74c1.71-0.61,3.45-0.91,5.21-0.91c2.05,0,3.74,0.29,5.06,0.86c1.33,0.58,2.38,1.33,3.14,2.26
			c0.77,0.93,1.3,1.97,1.61,3.12c0.3,1.15,0.46,2.3,0.46,3.46v14.02h-5.38V234.81z M1032.05,227.23h-1.3c-0.93,0-1.9,0.04-2.93,0.12
			c-1.03,0.08-1.97,0.26-2.83,0.53c-0.86,0.27-1.58,0.66-2.16,1.15c-0.58,0.5-0.86,1.18-0.86,2.04c0,0.54,0.12,1,0.36,1.37
			c0.24,0.37,0.55,0.66,0.94,0.89c0.38,0.22,0.82,0.38,1.3,0.48c0.48,0.1,0.96,0.14,1.44,0.14c1.98,0,3.49-0.53,4.51-1.58
			c1.02-1.06,1.54-2.5,1.54-4.32V227.23z"/>
		<path class="st2" d="M1056.85,220.85c-0.51-0.67-1.22-1.26-2.11-1.75c-0.9-0.5-1.87-0.74-2.93-0.74c-0.93,0-1.78,0.19-2.54,0.58
			c-0.77,0.38-1.15,1.02-1.15,1.92c0,0.9,0.42,1.53,1.27,1.9c0.85,0.37,2.09,0.74,3.72,1.13c0.86,0.19,1.74,0.45,2.62,0.77
			c0.88,0.32,1.68,0.74,2.4,1.27c0.72,0.53,1.3,1.18,1.75,1.97s0.67,1.74,0.67,2.86c0,1.41-0.26,2.6-0.79,3.58
			c-0.53,0.98-1.23,1.77-2.11,2.38c-0.88,0.61-1.9,1.05-3.07,1.32s-2.38,0.41-3.62,0.41c-1.79,0-3.54-0.33-5.23-0.98
			c-1.7-0.66-3.1-1.59-4.22-2.81l3.79-3.55c0.64,0.83,1.47,1.52,2.5,2.06c1.02,0.54,2.16,0.82,3.41,0.82c0.42,0,0.84-0.05,1.27-0.14
			c0.43-0.1,0.83-0.25,1.2-0.46c0.37-0.21,0.66-0.49,0.89-0.84c0.22-0.35,0.34-0.78,0.34-1.3c0-0.96-0.44-1.65-1.32-2.06
			c-0.88-0.42-2.2-0.83-3.96-1.25c-0.86-0.19-1.7-0.44-2.52-0.74c-0.82-0.3-1.54-0.7-2.18-1.2c-0.64-0.5-1.15-1.11-1.54-1.85
			c-0.38-0.74-0.58-1.65-0.58-2.74c0-1.28,0.26-2.38,0.79-3.31c0.53-0.93,1.22-1.69,2.09-2.28c0.86-0.59,1.84-1.03,2.93-1.32
			c1.09-0.29,2.21-0.43,3.36-0.43c1.66,0,3.29,0.29,4.87,0.86c1.58,0.58,2.84,1.46,3.77,2.64L1056.85,220.85z"/>
	</g>
</g>
</svg>
