<?xml version="1.0" encoding="utf-8"?>
<!-- Generator: Adobe Illustrator 19.1.0, SVG Export Plug-In . SVG Version: 6.00 Build 0)  -->
<!DOCTYPE svg PUBLIC "-//W3C//DTD SVG 1.1//EN" "http://www.w3.org/Graphics/SVG/1.1/DTD/svg11.dtd">
<svg version="1.1" id="Layer_1" xmlns="http://www.w3.org/2000/svg" xmlns:xlink="http://www.w3.org/1999/xlink" x="0px" y="0px"
	 viewBox="-211 69.1 428.4 177.9" style="enable-background:new -211 69.1 428.4 177.9;" xml:space="preserve">
<style type="text/css">
	.st0{fill:#b4a274;}
	.st1{fill:#231F20;}
	.st2{fill:#b4a274;}
	.st3{fill:#b4a274;}
	.st4{fill:#b4a274;}
	.st5{fill:#b4a274;}
</style>
<g>
	<g>
		<polygon class="st0" points="-119.8,70.3 -28.2,135.1 -83.9,176.4 -98,135.1 -139.9,135.1 		"/>
		<path class="st1" d="M-84.2,177.6c-0.4-0.1-0.7-0.4-0.8-0.8l0,0l-13.9-40.5H-140c-0.4,0-0.8-0.2-1-0.5l0,0
			c-0.2-0.3-0.3-0.7-0.2-1.1l0,0L-121,70c0.1-0.4,0.4-0.7,0.8-0.8l0,0c0.4-0.1,0.8-0.1,1.1,0.2l0,0l91.6,64.7c0.3,0.2,0.5,0.6,0.5,1
			l0,0c0,0.4-0.2,0.8-0.5,1l0,0l-55.7,41.3c-0.2,0.2-0.5,0.2-0.7,0.2l0,0C-84,177.7-84.1,177.6-84.2,177.6L-84.2,177.6z
			 M-138.3,133.9H-98c0.5,0,1,0.3,1.2,0.8l0,0l13.6,39.8l53-39.3l-89-62.9L-138.3,133.9L-138.3,133.9z"/>
	</g>
	<g>
		<g>
			<polygon class="st2" points="-83.9,176.4 -110.5,176.4 -98,135.1 			"/>
		</g>
		<g>
			<polygon class="st3" points="-118.2,201.9 -174,243.4 -174.3,242.8 -173.8,242.6 -153.1,176.6 -153.1,176.5 			"/>
		</g>
		<g>
			<polygon class="st3" points="-174.3,242.8 -209.8,135.1 -153.1,176.5 -153.1,176.6 -173.8,242.6 			"/>
		</g>
	</g>
	<g>
		<g>
			<path class="st1" d="M-174.4,244.6c-0.4-0.1-0.7-0.4-0.8-0.8l0,0l-0.2-0.6l-35.5-107.7c-0.2-0.5,0-1.1,0.4-1.4l0,0
				c0.4-0.3,1-0.3,1.4,0l0,0l56.7,41.4l-0.7,1l-0.7,1l-53.6-39.2l34,103.1l53.1-39.5l-33.5-24.5l0.7-1l0.7-1l34.8,25.4
				c0.3,0.2,0.5,0.6,0.5,1l0,0c0,0.4-0.2,0.8-0.5,1l0,0l-55.8,41.5c-0.2,0.2-0.5,0.2-0.7,0.2l0,0
				C-174.2,244.6-174.3,244.6-174.4,244.6L-174.4,244.6z"/>
		</g>
		<g>
			<path class="st1" d="M-174.2,243.8c-0.6-0.2-1-0.9-0.8-1.5l0,0l20.7-66c0.2-0.6,0.9-1,1.5-0.8l0,0c0.6,0.2,1,0.9,0.8,1.5l0,0
				l-20.7,66c-0.2,0.5-0.6,0.9-1.2,0.9l0,0C-173.9,243.8-174,243.8-174.2,243.8L-174.2,243.8z"/>
		</g>
		<g>
			<path class="st1" d="M-110.5,177.7v-1.2l1.2,0.3l-1.2-0.3V177.7c-0.4,0-0.7-0.2-1-0.5l0,0c-0.2-0.3-0.3-0.7-0.2-1.1l0,0
				l12.4-41.3c0.2-0.5,0.6-0.9,1.1-0.9l0,0c0.5,0,1,0.3,1.2,0.8l0,0l14.2,41.3c0.1,0.4,0.1,0.8-0.2,1.1l0,0c-0.2,0.3-0.6,0.5-1,0.5
				l0,0h-26.5V177.7z M-85.6,175.2L-98,139.1l-10.9,36.1H-85.6L-85.6,175.2z"/>
		</g>
	</g>
	<g>
		<polygon class="st4" points="-209.8,135.1 -98,135.1 -118.2,201.9 		"/>
		<path class="st1" d="M-118.9,202.9l-91.6-66.8l0.7-1l-0.7,1c-0.4-0.3-0.6-0.9-0.4-1.4l0,0c0.2-0.5,0.6-0.8,1.2-0.8l0,0H-98
			c0.4,0,0.7,0.2,1,0.5l0,0c0.2,0.3,0.3,0.7,0.2,1.1l0,0l-20.2,66.8c-0.1,0.4-0.4,0.7-0.8,0.8l0,0c-0.1,0-0.3,0.1-0.4,0.1l0,0
			C-118.5,203.2-118.7,203.1-118.9,202.9L-118.9,202.9z M-118.9,200l19.2-63.6h-106.4L-118.9,200L-118.9,200z"/>
	</g>
	<g>
		<path class="st5" d="M-82.7,210.9H-85v-23h2.3V210.9z"/>
		<path class="st5" d="M-77.1,193.6h2.2v2c0.7-0.8,1.5-1.4,2.4-1.7c0.9-0.4,1.9-0.6,3.1-0.6c1.3,0,2.4,0.2,3.4,0.7s1.8,1.2,2.4,2
			c0.4,0.6,0.7,1.4,0.9,2.2s0.3,2.1,0.3,3.7v9.1h-2.2v-9.7c0-2-0.4-3.5-1.2-4.5c-0.8-0.9-2-1.4-3.8-1.4c-1,0-1.9,0.2-2.7,0.6
			s-1.4,1-1.8,1.7c-0.3,0.5-0.5,1-0.6,1.6s-0.2,1.7-0.2,3.2v8.4h-2.2L-77.1,193.6L-77.1,193.6z"/>
		<path class="st5" d="M-58.6,205.5h2.3v0.1c0,1.1,0.3,2,0.9,2.7c0.6,0.7,1.4,1.1,2.3,1.1c0.9,0,1.6-0.3,2.2-0.8
			c0.6-0.5,0.9-1.2,0.9-2.1c0-0.8-0.2-1.5-0.7-2s-1.3-1-2.5-1.4c-1.9-0.7-3.2-1.4-3.8-2.1c-0.6-0.7-0.9-1.7-0.9-2.9
			c0-1.4,0.5-2.5,1.5-3.5c1-0.9,2.2-1.4,3.6-1.4c1.5,0,2.7,0.4,3.5,1.3c0.9,0.8,1.3,2,1.4,3.5h-2.4c-0.1-0.8-0.3-1.5-0.8-1.9
			c-0.5-0.5-1.1-0.7-1.9-0.7c-0.7,0-1.3,0.2-1.8,0.7s-0.7,1.1-0.7,1.8c0,0.5,0.1,1,0.3,1.3c0.2,0.4,0.5,0.7,1,1
			c0.4,0.3,1,0.5,1.8,0.8c0.8,0.2,1.3,0.4,1.6,0.5c1.1,0.5,1.9,1.1,2.4,1.8c0.5,0.8,0.8,1.7,0.8,2.9c0,1.5-0.5,2.7-1.6,3.7
			c-1,1-2.4,1.5-4,1.5s-2.9-0.5-3.9-1.6C-58,208.7-58.5,207.3-58.6,205.5z"/>
		<path class="st5" d="M-41.8,210.9v-15.1h-3.3v-2.2h3.3V188h2.2v5.6h3.3v2.2h-3.3v15.1H-41.8z"/>
		<path class="st5" d="M-30.6,191.5h-2.2v-3.6h2.2V191.5z M-32.8,210.9v-17.4h2.2v17.4H-32.8z"/>
		<path class="st5" d="M-23.9,210.9v-15.1h-3.3v-2.2h3.3V188h2.2v5.6h3.3v2.2h-3.3v15.1H-23.9z"/>
		<path class="st5" d="M-15,193.6h2.2v9.2c0,2.4,0.4,4,1.2,5s2,1.5,3.8,1.5c1,0,1.9-0.2,2.6-0.6c0.8-0.4,1.4-1,1.8-1.8
			c0.3-0.5,0.5-1,0.6-1.6s0.2-1.7,0.2-3.2v-8.5h2.2V211h-2.2v-1.9c-0.7,0.8-1.4,1.4-2.3,1.8c-0.8,0.4-1.8,0.6-3,0.6
			c-2.5,0-4.3-0.7-5.4-2c-1.1-1.3-1.7-3.6-1.7-6.7L-15,193.6L-15,193.6z"/>
		<path class="st5" d="M6.2,210.9v-15.1H2.9v-2.2h3.3V188h2.2v5.6h3.3v2.2H8.4v15.1H6.2z"/>
		<path class="st5" d="M14.2,202.3c0-2.5,0.9-4.7,2.6-6.5c1.7-1.8,3.8-2.7,6.2-2.7c2.5,0,4.7,0.9,6.4,2.7c1.8,1.8,2.7,3.9,2.7,6.4
			c0,2.6-0.9,4.8-2.6,6.6c-1.7,1.8-3.8,2.7-6.3,2.7s-4.6-0.9-6.4-2.7C15.1,206.9,14.2,204.8,14.2,202.3z M16.5,202.2
			c0,2,0.6,3.7,1.9,5c1.3,1.4,2.9,2,4.8,2c1.9,0,3.4-0.7,4.7-2c1.3-1.4,1.9-3,1.9-5.1s-0.6-3.7-1.9-5.1c-1.3-1.3-2.9-2-4.9-2
			c-1.8,0-3.3,0.7-4.6,2C17.2,198.5,16.5,200.2,16.5,202.2z"/>
		<path class="st5" d="M61.7,196.3v-3.9v-4.5h2.2v23h-2.2v-2.6c-0.8,1-1.7,1.7-2.9,2.3c-1.2,0.5-2.4,0.8-3.7,0.8
			c-2.5,0-4.6-0.9-6.3-2.7c-1.7-1.8-2.6-3.9-2.6-6.5c0-2.5,0.8-4.7,2.5-6.4c1.7-1.7,3.8-2.6,6.4-2.6c1.4,0,2.6,0.3,3.7,0.8
			C59.9,194.5,60.9,195.3,61.7,196.3z M61.7,202.4c0-2-0.7-3.7-2-5.1s-2.8-2.1-4.6-2.1c-1.8,0-3.4,0.7-4.7,2c-1.3,1.3-2,3-2,4.9
			c0,2,0.7,3.7,2,5.1c1.3,1.4,2.9,2.1,4.8,2.1c1.7,0,3.2-0.7,4.5-2.1C61.1,205.9,61.7,204.3,61.7,202.4z"/>
		<path class="st5" d="M86.1,203H70.4c0.1,1.9,0.8,3.4,2.1,4.6c1.2,1.2,2.8,1.7,4.6,1.7c1.3,0,2.5-0.3,3.5-1s1.8-1.6,2.4-2.8h2.5
			c-0.8,1.9-1.9,3.4-3.4,4.4c-1.4,1-3.1,1.5-5,1.5c-2.5,0-4.7-0.9-6.4-2.7c-1.7-1.8-2.6-4-2.6-6.5c0-2.6,0.9-4.8,2.6-6.5
			s3.9-2.6,6.6-2.6c2.6,0,4.7,0.9,6.4,2.7c1.6,1.8,2.5,4.1,2.5,7v0.2H86.1z M83.6,201c-0.4-1.9-1.2-3.4-2.3-4.4
			c-1.1-1-2.6-1.5-4.4-1.5c-1.7,0-3.1,0.5-4.3,1.6c-1.2,1-1.9,2.5-2.1,4.2h13.1V201z"/>
		<path class="st5" d="M-84.8,246.5v-23h3.3l8,20l7.9-20h3.3v23h-2.2v-20.3l-8.1,20.3h-2l-8.1-20.3v20.3H-84.8z"/>
		<path class="st5" d="M-43.1,243.7c-0.7,1-1.6,1.8-2.8,2.4c-1.2,0.6-2.5,0.9-3.8,0.9c-2.5,0-4.7-0.9-6.4-2.6
			c-1.7-1.7-2.5-3.9-2.5-6.4c0-2.6,0.9-4.8,2.6-6.5c1.7-1.7,3.9-2.6,6.5-2.6c1.3,0,2.6,0.3,3.7,0.8c1.1,0.5,2,1.3,2.8,2.3v-2.9h2.2
			v17.4H-43v-2.8H-43.1z M-43.1,237.7c0-1.8-0.7-3.4-2-4.8c-1.3-1.4-2.8-2.1-4.5-2.1c-1.9,0-3.4,0.7-4.8,2.1c-1.3,1.4-2,3.1-2,5.1
			c0,1.9,0.7,3.6,2,4.9c1.3,1.3,2.9,2,4.7,2s3.3-0.7,4.6-2.1C-43.7,241.4-43.1,239.7-43.1,237.7z"/>
		<path class="st5" d="M-33.5,246.5v-15.1h-3.3v-2.3h3.3v-5.6h2.2v5.6h3.3v2.2h-3.3v15.1L-33.5,246.5L-33.5,246.5z"/>
		<path class="st5" d="M-7.5,238.5h-15.7c0.1,1.9,0.8,3.4,2.1,4.6c1.2,1.2,2.8,1.7,4.6,1.7c1.3,0,2.5-0.3,3.5-1s1.8-1.6,2.4-2.8h2.5
			c-0.8,1.9-1.9,3.4-3.4,4.4c-1.4,1-3.1,1.5-5,1.5c-2.5,0-4.7-0.9-6.4-2.7s-2.6-4-2.6-6.5c0-2.6,0.9-4.8,2.6-6.5
			c1.7-1.7,3.9-2.6,6.6-2.6c2.6,0,4.7,0.9,6.4,2.7c1.6,1.8,2.5,4.1,2.5,7v0.2H-7.5z M-10,236.6c-0.4-1.9-1.2-3.4-2.3-4.4
			s-2.6-1.5-4.4-1.5c-1.7,0-3.1,0.5-4.3,1.6c-1.2,1-1.9,2.5-2.1,4.2L-10,236.6L-10,236.6z"/>
		<path class="st5" d="M10.3,231.8c0.7-1,1.6-1.8,2.6-2.3s2.2-0.8,3.5-0.8c2.4,0,4.1,0.7,5.1,2.1c1.1,1.4,1.6,3.7,1.6,6.8v8.8H21
			v-9.2c0-2.3-0.4-3.9-1.1-4.9c-0.8-1-2-1.5-3.7-1.5c-1,0-1.9,0.2-2.6,0.6c-0.8,0.4-1.3,1-1.8,1.7c-0.3,0.5-0.5,1-0.6,1.6
			s-0.2,1.7-0.2,3.2v8.4H9v-9.7c0-2-0.4-3.5-1.2-4.4c-0.8-1-2.1-1.4-3.7-1.4c-1,0-1.9,0.2-2.7,0.6c-0.8,0.4-1.4,1-1.8,1.7
			c-0.3,0.5-0.5,1-0.6,1.6s-0.2,1.7-0.2,3.2v8.4h-2.2v-17.2h2.2v2c0.7-0.8,1.4-1.3,2.3-1.7c0.9-0.4,1.9-0.6,3.1-0.6
			c1.3,0,2.5,0.3,3.6,0.8C8.9,230.1,9.7,230.9,10.3,231.8z"/>
		<path class="st5" d="M42.2,243.7c-0.7,1-1.6,1.8-2.8,2.4c-1.2,0.6-2.5,0.9-3.8,0.9c-2.5,0-4.7-0.9-6.4-2.6
			c-1.7-1.7-2.5-3.9-2.5-6.4c0-2.6,0.9-4.8,2.6-6.5c1.7-1.7,3.9-2.6,6.5-2.6c1.3,0,2.6,0.3,3.7,0.8c1.1,0.5,2,1.3,2.8,2.3v-2.9h2.2
			v17.4h-2.2v-2.8H42.2z M42.2,237.7c0-1.8-0.7-3.4-2-4.8c-1.3-1.4-2.8-2.1-4.5-2.1c-1.9,0-3.4,0.7-4.8,2.1c-1.3,1.4-2,3.1-2,5.1
			c0,1.9,0.7,3.6,2,4.9c1.3,1.3,2.9,2,4.7,2s3.3-0.7,4.6-2.1C41.6,241.4,42.2,239.7,42.2,237.7z M35.3,226.8h-1.5l3.3-5.5h2.4
			L35.3,226.8z"/>
		<path class="st5" d="M51.9,246.5v-15.1h-3.3v-2.3h3.3v-5.6h2.2v5.6h3.3v2.2h-3.3v15.1L51.9,246.5L51.9,246.5z"/>
		<path class="st5" d="M63,227.1h-2.2v-3.6H63V227.1z M60.8,246.5v-17.4H63v17.4H60.8z"/>
		<path class="st5" d="M82.1,234.4c-0.7-1.3-1.5-2.2-2.5-2.8s-2.2-0.9-3.5-0.9c-1.8,0-3.3,0.7-4.6,2c-1.2,1.4-1.9,3-1.9,5
			s0.6,3.7,1.9,5s2.8,2,4.6,2c1.3,0,2.5-0.3,3.6-1c1-0.7,1.8-1.6,2.4-2.8h2.5c-0.7,1.9-1.7,3.3-3.2,4.4c-1.4,1-3.1,1.5-5.1,1.5
			c-2.5,0-4.6-0.9-6.4-2.7c-1.7-1.8-2.6-3.9-2.6-6.4c0-2.6,0.9-4.7,2.6-6.5c1.8-1.8,3.9-2.7,6.4-2.7c1.9,0,3.5,0.5,5,1.5
			c1.4,1,2.5,2.4,3.2,4.3L82.1,234.4L82.1,234.4z"/>
		<path class="st5" d="M103.2,243.7c-0.7,1-1.6,1.8-2.8,2.4c-1.2,0.6-2.5,0.9-3.8,0.9c-2.5,0-4.7-0.9-6.4-2.6
			c-1.7-1.7-2.5-3.9-2.5-6.4c0-2.6,0.9-4.8,2.6-6.5s3.9-2.6,6.5-2.6c1.3,0,2.6,0.3,3.7,0.8s2,1.3,2.8,2.3v-2.9h2.2v17.4h-2.2v-2.8
			H103.2z M103.2,237.7c0-1.8-0.7-3.4-2-4.8c-1.3-1.4-2.8-2.1-4.5-2.1c-1.9,0-3.5,0.7-4.8,2.1c-1.3,1.4-2,3.1-2,5.1
			c0,1.9,0.7,3.6,2,4.9c1.3,1.3,2.9,2,4.7,2c1.8,0,3.3-0.7,4.6-2.1C102.6,241.4,103.2,239.7,103.2,237.7z"/>
		<path class="st5" d="M109.8,241h2.3v0.1c0,1.1,0.3,2,0.9,2.7s1.4,1.1,2.3,1.1s1.6-0.3,2.2-0.8s0.9-1.2,0.9-2.1
			c0-0.8-0.2-1.5-0.7-2s-1.3-1-2.5-1.4c-1.9-0.7-3.2-1.4-3.8-2.1c-0.6-0.7-0.9-1.7-0.9-2.9c0-1.4,0.5-2.5,1.5-3.5
			c1-0.9,2.2-1.4,3.6-1.4c1.5,0,2.7,0.4,3.5,1.3c0.9,0.8,1.3,2,1.4,3.5h-2.4c-0.1-0.8-0.3-1.5-0.8-1.9c-0.5-0.5-1.1-0.7-1.9-0.7
			c-0.7,0-1.3,0.2-1.8,0.7s-0.7,1.1-0.7,1.8c0,0.5,0.1,0.9,0.3,1.3c0.2,0.4,0.5,0.7,1,1c0.4,0.3,1,0.5,1.8,0.8
			c0.8,0.2,1.3,0.4,1.6,0.5c1.1,0.5,1.9,1.1,2.4,1.8c0.5,0.8,0.8,1.7,0.8,2.9c0,1.5-0.5,2.7-1.6,3.7c-1,1-2.4,1.5-4,1.5
			s-2.9-0.5-3.9-1.6C110.4,244.3,109.9,242.8,109.8,241z"/>
		<path class="st5" d="M142.3,226.4h2v12.7c0,1,0,1.7,0.1,2.2s0.2,0.9,0.4,1.3c0.4,0.8,0.9,1.4,1.6,1.8c0.7,0.4,1.5,0.7,2.4,0.7
			c1.5,0,2.6-0.5,3.4-1.6c0.7-1,1.1-2.6,1.1-4.8v-12.3h2v12.8c0,2.6-0.5,4.5-1.6,5.8c-1,1.3-2.6,1.9-4.7,1.9c-2.3,0-3.9-0.6-5-1.9
			c-1.1-1.3-1.6-3.2-1.6-5.9L142.3,226.4L142.3,226.4z"/>
		<path class="st5" d="M173.1,244.1l-0.2-17.7h2v20.1h-2.4l-11-17.7l0.2,17.7h-1.9v-20.1h2.4L173.1,244.1z"/>
		<path class="st5" d="M179.3,246.5h-2.1l7.8-20.1h2.4l7.8,20.1h-2.1l-2.4-6.3h-8.9L179.3,246.5z M190,238.4l-3.8-10.1l-3.8,10.1
			H190z"/>
		<path class="st5" d="M197.7,246.5v-20.1h2.9l7,17.5l6.9-17.5h2.9v20.1h-1.9v-17.8l-7.1,17.8h-1.8l-7.1-17.8v17.8H197.7z"/>
	</g>
</g>
</svg>
