<?xml version="1.0" encoding="UTF-8"?>
<svg version="1.1" xmlns="http://www.w3.org/2000/svg" width="225" height="225">
<path d="M0 0 C74.25 0 148.5 0 225 0 C225 74.25 225 148.5 225 225 C150.75 225 76.5 225 0 225 C0 150.75 0 76.5 0 0 Z " fill="#00324F" transform="translate(0,0)"/>
<path d="M0 0 C7.89378416 -0.06990045 15.78743626 -0.12301242 23.68145466 -0.15543652 C27.34805139 -0.1710084 31.01443441 -0.19208875 34.6809082 -0.22631836 C38.22764842 -0.25921815 41.77418472 -0.27691653 45.3210659 -0.28463173 C47.31439828 -0.29276919 49.30765007 -0.31613815 51.30085754 -0.33988953 C59.02020714 -0.34129961 65.68745557 0.50764977 73 3 C74.11632812 3.37640625 75.23265625 3.7528125 76.3828125 4.140625 C89.26532632 9.35235424 97.34242974 17.03137652 103.4375 29.5625 C107.8560534 41.65638538 105.35596211 56.63222963 100.375 68.125 C93.01806537 81.55210502 81.15121975 88.39443576 66.97265625 92.6015625 C64.68698548 93.06322273 62.57985583 93.09676259 60.25 93.0625 C59.45078125 93.05347656 58.6515625 93.04445313 57.828125 93.03515625 C57.22484375 93.02355469 56.6215625 93.01195312 56 93 C56 94.98 56 96.96 56 99 C58.97 99 61.94 99 65 99 C65 99.99 65 100.98 65 102 C55.43 102 45.86 102 36 102 C36.33 108.27 36.66 114.54 37 121 C40.00778521 122.00259507 42.53820647 122.30314642 45.6875 122.5625 C47.17830078 122.68818359 47.17830078 122.68818359 48.69921875 122.81640625 C49.45847656 122.87699219 50.21773437 122.93757813 51 123 C51.33 124.32 51.66 125.64 52 127 C49.49450555 128.25274723 47.80264368 128.12029624 44.99951172 128.11352539 C43.43811966 128.11341209 43.43811966 128.11341209 41.84518433 128.11329651 C40.71807037 128.10813522 39.59095642 128.10297394 38.4296875 128.09765625 C36.70264084 128.09553383 36.70264084 128.09553383 34.94070435 128.09336853 C31.25211014 128.08775716 27.56357595 128.0752027 23.875 128.0625 C21.37890712 128.05748647 18.8828133 128.05292331 16.38671875 128.04882812 C10.25779191 128.03778403 4.12890024 128.0210348 -2 128 C-2.33 127.01 -2.66 126.02 -3 125 C2.93526674 123.3042095 6.43646084 123 13 123 C13 84.39 13 45.78 13 6 C10.43106162 4.71553081 8.23423663 4.67022856 5.375 4.4375 C3.87066406 4.31181641 3.87066406 4.31181641 2.3359375 4.18359375 C1.17964844 4.09271484 1.17964844 4.09271484 0 4 C0 2.68 0 1.36 0 0 Z " fill="#3C4147" transform="translate(28,50)"/>
<path d="M0 0 C5.94072787 -0.0746515 11.8811773 -0.12883772 17.82226562 -0.16479492 C19.83956667 -0.17979884 21.85683556 -0.20020855 23.87402344 -0.22631836 C26.78849263 -0.26307353 29.70252726 -0.27981068 32.6171875 -0.29296875 C33.95062698 -0.31619453 33.95062698 -0.31619453 35.31100464 -0.33988953 C46.44339525 -0.34282222 55.13073274 3.22268944 63.6875 10.1875 C69.73583774 17.54358644 71.81406868 24.04620797 71.41015625 33.60546875 C70.28716011 42.89959874 66.05827903 49.88282484 59 56 C52.23871625 60.3119907 46.12847098 62.14578824 38.125 62.125 C37.13757813 62.12757813 36.15015625 62.13015625 35.1328125 62.1328125 C31.73721648 61.98885955 28.36448791 61.48064113 25 61 C25.33 67.6 25.66 74.2 26 81 C28.97 81.33 31.94 81.66 35 82 C35 82.99 35 83.98 35 85 C23.12 85 11.24 85 -1 85 C-1 84.34 -1 83.68 -1 83 C3.95 82.01 3.95 82.01 9 81 C9 55.59 9 30.18 9 4 C6.03 3.67 3.06 3.34 0 3 C0 2.01 0 1.02 0 0 Z " fill="#F08F1F" transform="translate(58,67)"/>
<path d="M0 0 C17.16 0 34.32 0 52 0 C51.67 1.32 51.34 2.64 51 4 C49.96939453 4.03867187 49.96939453 4.03867187 48.91796875 4.078125 C48.01691406 4.13484375 47.11585938 4.1915625 46.1875 4.25 C45.29417969 4.29640625 44.40085938 4.3428125 43.48046875 4.390625 C40.93495819 4.79298349 40.93495819 4.79298349 39.36923218 6.59584045 C37.50477129 9.86954488 37.61886648 12.31611068 37.61181641 16.07592773 C37.60393097 17.13277267 37.60393097 17.13277267 37.59588623 18.21096802 C37.58270409 20.53540346 37.59141846 22.85915157 37.6015625 25.18359375 C37.59954101 26.80257803 37.59662895 28.42156143 37.59286499 30.0405426 C37.58844388 33.43247147 37.59486485 36.82416318 37.60888672 40.21606445 C37.62596498 44.55841458 37.61614497 48.90020787 37.59816933 53.2425375 C37.58731397 56.58576124 37.59078607 59.92885361 37.5985527 63.27208138 C37.60055058 64.87282439 37.59810992 66.47357942 37.59111404 68.0743084 C37.58347203 70.31475142 37.59514176 72.55430103 37.61181641 74.79467773 C37.61539658 76.70518166 37.61539658 76.70518166 37.61904907 78.65428162 C38.02844214 82.24979439 38.78829802 84.16024121 41 87 C43.48513583 87.81406498 43.48513583 87.81406498 46.1875 87.8125 C47.08855469 87.86019531 47.98960937 87.90789062 48.91796875 87.95703125 C49.60503906 87.97121094 50.29210937 87.98539062 51 88 C51 89.32 51 90.64 51 92 C34.5 92 18 92 1 92 C1 90.68 1 89.36 1 88 C1.68707031 87.98582031 2.37414062 87.97164063 3.08203125 87.95703125 C5.80143582 87.81308566 8.34039829 87.59197586 11 87 C13.65041192 84.02832603 14.02519516 81.89921937 15 78 C8.73 78 2.46 78 -4 78 C-4 77.34 -4 76.68 -4 76 C-2.865625 75.690625 -1.73125 75.38125 -0.5625 75.0625 C2.78775099 74.37075469 2.78775099 74.37075469 4 73 C4.09861598 71.37872577 4.12798767 69.75317632 4.12939453 68.12890625 C4.13254669 67.09113037 4.13569885 66.05335449 4.13894653 64.98413086 C4.1369223 63.85499268 4.13489807 62.72585449 4.1328125 61.5625 C4.13376923 60.41209229 4.13472595 59.26168457 4.13571167 58.07641602 C4.13639369 55.63850856 4.1345379 53.2005993 4.13037109 50.76269531 C4.12502317 47.01623482 4.13031539 43.26989423 4.13671875 39.5234375 C4.13605797 37.16145807 4.13477682 34.79947871 4.1328125 32.4375 C4.13584885 30.74379272 4.13584885 30.74379272 4.13894653 29.01586914 C4.13579437 27.97809326 4.13264221 26.94031738 4.12939453 25.87109375 C4.12859894 24.95255615 4.12780334 24.03401855 4.12698364 23.08764648 C4.23217579 21.01121878 4.23217579 21.01121878 3 20 C0.67182036 19.63239269 -1.6618385 19.29758419 -4 19 C-4 18.01 -4 17.02 -4 16 C2.27 16 8.54 16 15 16 C14.34 12.37 13.68 8.74 13 5 C9.04 4.67 5.08 4.34 1 4 C0.67 2.68 0.34 1.36 0 0 Z " fill="#3D4246" transform="translate(134,51)"/>
<path d="M0 0 C2.37570543 -0.0816082 4.74855841 -0.14077222 7.125 -0.1875 C7.79015625 -0.21263672 8.4553125 -0.23777344 9.140625 -0.26367188 C15.22930237 -0.35321125 18.98579399 1.407372 23.6875 5.125 C30.54903905 13.65556207 29.77203672 24.58104569 29 35 C27.96730228 43.45695703 25.46405021 49.31475102 19 55 C15.31040237 56.84479881 11.03586349 56.34956298 7 56 C3.656432 54.67650433 2.44655108 53.92558228 0.88919067 50.69758606 C-0.01599708 47.95146879 -0.24223795 45.90409062 -0.22705078 43.02612305 C-0.22689972 42.06550461 -0.22674866 41.10488617 -0.22659302 40.11515808 C-0.21627045 39.0910231 -0.20594788 38.06688812 -0.1953125 37.01171875 C-0.1924826 35.95338333 -0.18965271 34.89504791 -0.18673706 33.80464172 C-0.1755629 30.43214502 -0.15046307 27.05991613 -0.125 23.6875 C-0.11496664 21.3977903 -0.10584141 19.10807643 -0.09765625 16.81835938 C-0.0756326 11.21214857 -0.04218236 5.60609342 0 0 Z " fill="#03324F" transform="translate(83,70)"/>
<path d="M0 0 C11.22 0 22.44 0 34 0 C34 0.99 34 1.98 34 3 C32.329375 3.185625 32.329375 3.185625 30.625 3.375 C26.96896323 3.6465813 26.96896323 3.6465813 25 6 C24.69407684 8.20870478 24.69407684 8.20870478 24.74121094 10.78515625 C24.73490662 11.7795874 24.72860229 12.77401855 24.72210693 13.79858398 C24.7261554 14.87567627 24.73020386 15.95276855 24.734375 17.0625 C24.73246155 18.164729 24.7305481 19.26695801 24.72857666 20.40258789 C24.72721388 22.73616768 24.73091678 25.06975503 24.73925781 27.40332031 C24.74995579 30.98519847 24.73936542 34.56657503 24.7265625 38.1484375 C24.72788408 40.41145945 24.73044643 42.67448108 24.734375 44.9375 C24.73032654 46.01459229 24.72627808 47.09168457 24.72210693 48.20141602 C24.72841125 49.19584717 24.73471558 50.19027832 24.74121094 51.21484375 C24.74280212 52.09261475 24.74439331 52.97038574 24.74603271 53.87475586 C24.80369058 56.21582982 24.80369058 56.21582982 27 58 C29.32275177 58.40047444 31.65739357 58.7397104 34 59 C34 59.99 34 60.98 34 62 C22.78 62 11.56 62 0 62 C0 61.34 0 60.68 0 60 C1.134375 59.690625 2.26875 59.38125 3.4375 59.0625 C6.78775099 58.37075469 6.78775099 58.37075469 8 57 C8.09861598 55.37872577 8.12798767 53.75317632 8.12939453 52.12890625 C8.13254669 51.09113037 8.13569885 50.05335449 8.13894653 48.98413086 C8.1369223 47.85499268 8.13489807 46.72585449 8.1328125 45.5625 C8.13376923 44.41209229 8.13472595 43.26168457 8.13571167 42.07641602 C8.13639369 39.63850856 8.1345379 37.2005993 8.13037109 34.76269531 C8.12502317 31.01623482 8.13031539 27.26989423 8.13671875 23.5234375 C8.13605797 21.16145807 8.13477682 18.79947871 8.1328125 16.4375 C8.13584885 14.74379272 8.13584885 14.74379272 8.13894653 13.01586914 C8.13579437 11.97809326 8.13264221 10.94031738 8.12939453 9.87109375 C8.12859894 8.95255615 8.12780334 8.03401855 8.12698364 7.08764648 C8.23217579 5.01121878 8.23217579 5.01121878 7 4 C4.67182036 3.63239269 2.3381615 3.29758419 0 3 C0 2.01 0 1.02 0 0 Z " fill="#EC8D20" transform="translate(130,67)"/>
<path d="M0 0 C10.55715902 0.02535923 18.68105059 1.10216137 26.6640625 8.53125 C28.125 10.25 28.125 10.25 29.125 13.25 C16.585 12.92 4.045 12.59 -8.875 12.25 C-8.875 0.03108087 -8.875 0.03108087 0 0 Z " fill="#01324F" transform="translate(72.875,53.75)"/>
<path d="M0 0 C1.32 0.33 2.64 0.66 4 1 C4 21.46 4 41.92 4 63 C0.21268225 57.95024299 -0.12793945 54.63014539 -0.11352539 48.4753418 C-0.11344986 47.39459885 -0.11337433 46.3138559 -0.11329651 45.20036316 C-0.10813522 44.0449855 -0.10297394 42.88960785 -0.09765625 41.69921875 C-0.0962413 40.50770706 -0.09482635 39.31619537 -0.09336853 38.08857727 C-0.08777728 34.28819249 -0.07522632 30.48786693 -0.0625 26.6875 C-0.05748387 24.10872481 -0.05292116 21.5299487 -0.04882812 18.95117188 C-0.03781071 12.63409443 -0.02108122 6.31705145 0 0 Z " fill="#053150" transform="translate(64,70)"/>
<path d="M0 0 C3.41814784 2.27876523 4.24430142 4.04846601 5.42578125 7.91796875 C7.38636892 18.441123 7.18509639 31.07674411 3 41 C1.46236727 43.1554316 0.13169527 44.3868252 -2 46 C-1.86722656 45.43152344 -1.73445313 44.86304688 -1.59765625 44.27734375 C-1.42105469 43.50519531 -1.24445313 42.73304687 -1.0625 41.9375 C-0.88847656 41.18339844 -0.71445313 40.42929688 -0.53515625 39.65234375 C0.89876177 32.545553 1.15274876 25.7239261 1.125 18.5 C1.12886719 17.49324219 1.13273437 16.48648438 1.13671875 15.44921875 C1.12982746 10.19116118 0.91665587 5.17983317 0 0 Z " fill="#434445" transform="translate(106,76)"/>
<path d="M0 0 C5.28 0.33 10.56 0.66 16 1 C12.35497209 5.59967808 9.64773758 8.91279263 4 11 C2.68 11 1.36 11 0 11 C0 7.37 0 3.74 0 0 Z " fill="#04334F" transform="translate(84,128)"/>
<path d="M0 0 C10.89 0 21.78 0 33 0 C33 0.99 33 1.98 33 3 C22.11 2.34 11.22 1.68 0 1 C0 0.67 0 0.34 0 0 Z " fill="#FC951A" transform="translate(65,67)"/>
<path d="M0 0 C0 0.33 0 0.66 0 1 C5.94 1.33 11.88 1.66 18 2 C18 2.33 18 2.66 18 3 C9.09 3 0.18 3 -9 3 C-9 2.34 -9 1.68 -9 1 C-6.04335481 -0.4783226 -3.25770263 -0.06032783 0 0 Z " fill="#E68B22" transform="translate(66,149)"/>
<path d="M0 0 C1.32 0 2.64 0 4 0 C4 2.31 4 4.62 4 7 C2.68 7 1.36 7 0 7 C0 4.69 0 2.38 0 0 Z " fill="#06314F" transform="translate(64,141)"/>
<path d="M0 0 C-2 2 -2 2 -4.8203125 2.1953125 C-5.91085938 2.17210937 -7.00140625 2.14890625 -8.125 2.125 C-9.22070312 2.10695312 -10.31640625 2.08890625 -11.4453125 2.0703125 C-12.28835937 2.04710937 -13.13140625 2.02390625 -14 2 C-12 -1 -12 -1 -8.125 -1.8125 C-4.84985471 -2.1221501 -2.76815287 -1.96077495 0 0 Z " fill="#E28923" transform="translate(104,127)"/>
</svg>
